<svg width="119" height="117" viewBox="0 0 119 117" fill="none" xmlns="http://www.w3.org/2000/svg">
    <rect y="0.846191" width="118.522" height="116" rx="58" fill="white" />
    <mask id="mask0_486_29622" style="mask-type:alpha" maskUnits="userSpaceOnUse" x="0" y="0"
        width="119" height="117">
        <rect y="0.846191" width="118.522" height="116" rx="58" fill="#F2FE53" />
    </mask>
    <g mask="url(#mask0_486_29622)">
        <path
            d="M34.9098 23.0163L35.3383 23.2949L34.9096 23.0167C34.7761 23.2354 34.6445 23.463 34.5105 23.695L34.9098 23.0163ZM99.9626 122.983C99.9626 122.983 99.9628 122.982 99.9629 122.981L99.9626 122.983ZM82.1672 20.3698C82.1672 20.3701 82.1679 20.3725 82.1693 20.3768C82.1689 20.3754 82.1685 20.374 82.1681 20.3724C82.1675 20.3705 82.1672 20.3696 82.1672 20.3698Z"
            fill="#100F0D" stroke="black" stroke-width="2" />
        <path
            d="M20.4987 65.5913C21.3073 65.748 22.1184 65.8915 22.9318 66.0208C23.7901 66.1571 24.651 66.278 25.5133 66.3855C26.3345 66.4875 27.1574 66.5756 27.9815 66.6496C28.8015 66.7232 29.6227 66.7826 30.4447 66.8281C31.2667 66.8736 32.0894 66.905 32.9124 66.9221C33.0153 66.9243 33.1182 66.9261 33.2211 66.9279C33.3739 66.9305 33.5396 66.858 33.647 66.7483C33.7515 66.6423 33.8302 66.4678 33.8235 66.3152C33.8165 66.1567 33.7654 65.9924 33.647 65.882C33.5281 65.7709 33.3852 65.7053 33.2211 65.7024C32.1016 65.6835 30.9827 65.639 29.8653 65.568C28.7521 65.4977 27.6404 65.4012 26.5314 65.2791C25.9053 65.2103 25.2802 65.1334 24.656 65.0482C24.7094 65.0555 24.7628 65.0627 24.8161 65.07C23.7719 64.9272 22.7306 64.7618 21.6933 64.5739C21.4015 64.5207 21.1101 64.466 20.819 64.4096C20.6577 64.3782 20.5005 64.3844 20.3548 64.4711C20.2298 64.5458 20.1106 64.6915 20.0779 64.8376C20.0428 64.9942 20.0504 65.1706 20.1386 65.3097C20.2198 65.4376 20.3461 65.5615 20.4987 65.5913Z"
            fill="#100F0D" />
        <path
            d="M96.3929 61.463C94.6837 61.2855 92.9593 61.513 91.2871 61.8749C89.63 62.2338 88.0065 62.7325 86.3597 63.134C85.5647 63.3278 84.7625 63.4894 83.9525 63.6009C84.0056 63.5935 84.0592 63.5865 84.1123 63.5791C82.8568 63.7501 81.5799 63.8037 80.321 63.6356C80.3746 63.6426 80.4277 63.65 80.4813 63.6574C79.6913 63.5494 78.9144 63.3516 78.178 63.0388C78.2262 63.0591 78.274 63.0799 78.3222 63.1003C77.8426 62.8941 77.3845 62.6408 76.9566 62.3394C76.8338 62.2531 76.6315 62.2387 76.4921 62.2779C76.3522 62.3171 76.2011 62.4266 76.1319 62.5595C75.9701 62.8717 76.071 63.2024 76.3483 63.3977C78.138 64.6563 80.3683 65.0399 82.5069 64.9512C83.6123 64.9051 84.7147 64.743 85.7977 64.5165C86.9621 64.2726 88.1084 63.9464 89.2571 63.6391C90.5935 63.2817 91.9382 62.9406 93.3092 62.7503C93.2556 62.7577 93.2025 62.7652 93.1489 62.7726C94.2241 62.6254 95.3124 62.5763 96.3929 62.6883C96.5372 62.7037 96.7204 62.6095 96.8189 62.5089C96.9237 62.4028 97.0021 62.2283 96.9953 62.0757C96.9885 61.9175 96.9373 61.753 96.8189 61.6424C96.6946 61.5264 96.5606 61.4803 96.3929 61.463Z"
            fill="#100F0D" />
        <path
            d="M65.4944 63.6018C62.6954 63.5253 59.8945 63.5256 57.0958 63.6036C54.2971 63.6819 51.5004 63.8375 48.71 64.0703C47.1377 64.2019 45.5674 64.3578 43.9998 64.5378C43.8351 64.557 43.6955 64.5936 43.5738 64.7173C43.4693 64.8238 43.3907 64.9982 43.3974 65.1508C43.4044 65.309 43.4555 65.4734 43.5738 65.5839C43.6839 65.6866 43.8444 65.7812 43.9998 65.7635C46.782 65.4438 49.5726 65.2003 52.3677 65.0351C55.1629 64.8696 57.9623 64.7816 60.7621 64.7713C62.3397 64.7654 63.9172 64.7842 65.4944 64.8275C65.8094 64.836 66.111 64.5392 66.0968 64.2148C66.0819 63.8752 65.832 63.611 65.4944 63.6018Z"
            fill="#100F0D" />
        <path
            d="M65.0326 60.739C63.7926 60.22 62.4254 61.5908 62.4021 62.9544C62.3788 64.3176 63.2258 65.5229 64.08 66.5741C64.9342 67.6254 65.8713 68.7136 66.0887 70.0591C66.2097 70.8105 66.1393 71.6973 66.7038 72.197C67.0283 72.4845 67.4809 72.5548 67.9074 72.6139C69.4592 72.8282 71.011 73.0429 72.5628 73.2571C74.0091 73.4569 75.5957 73.6278 76.8242 72.8266C78.2384 71.904 78.6724 70.0394 78.9875 68.3611C79.4934 65.6668 79.9993 62.9721 80.5053 60.2779C80.5914 59.8184 80.6669 59.3018 80.4037 58.9179C79.9321 58.23 78.8886 58.5388 78.1349 58.8789C74.2008 60.6545 69.7979 61.3416 65.5211 60.8471"
            fill="#F7906D" />
        <path
            d="M45.5476 76.2692C45.6518 77.1354 45.7959 77.9956 45.9953 78.845C46.0904 79.2499 46.1969 79.6516 46.3148 80.0502C46.4294 80.438 46.5501 80.8338 46.7463 81.1881C46.9405 81.539 47.2256 81.8516 47.5751 82.0462C47.903 82.229 48.2679 82.3179 48.6402 82.3297C48.9757 82.3403 49.3241 82.282 49.6428 82.1757C49.9685 82.0671 50.2877 81.9158 50.5693 81.7156C51.2832 81.2078 51.7877 80.4844 52.3137 79.7917C52.2824 79.8332 52.2508 79.8746 52.2195 79.9158C52.5152 79.5268 52.8213 79.1136 53.2043 78.8085C53.1635 78.8403 53.123 78.8721 53.0822 78.9043C53.1663 78.8394 53.2546 78.7826 53.3518 78.7405C53.3037 78.7611 53.2558 78.7817 53.2077 78.8023C53.2669 78.7786 53.3261 78.7614 53.3886 78.7514C53.3353 78.7586 53.2819 78.7661 53.2285 78.7733C53.2908 78.7655 53.3518 78.7658 53.4138 78.7742C53.3604 78.7667 53.307 78.7595 53.2537 78.752C53.3055 78.7602 53.3549 78.7736 53.4037 78.7932C53.3555 78.7726 53.3077 78.752 53.2598 78.7315C53.3095 78.7533 53.3552 78.7807 53.3984 78.8141C53.3577 78.7823 53.3172 78.7502 53.2764 78.7184C53.3227 78.7564 53.3632 78.7995 53.3997 78.8475C53.3684 78.806 53.3371 78.7645 53.3055 78.7233C53.3598 78.797 53.4021 78.8777 53.438 78.9623C53.4178 78.9133 53.3975 78.8646 53.3773 78.816C53.4877 79.0858 53.5315 79.3796 53.5699 79.6675C53.5628 79.6132 53.5555 79.559 53.5484 79.5047C53.603 79.9214 53.6331 80.3388 53.7938 80.7308C53.9664 81.1519 54.2032 81.5294 54.5246 81.8519C55.103 82.4327 55.8903 82.8266 56.6935 82.9486C56.9253 82.9835 57.1572 83.011 57.3918 83.0097C57.6218 83.0085 57.8515 82.981 58.0782 82.9423C58.5029 82.8697 58.9145 82.7015 59.2856 82.4816C60.0768 82.0128 60.7126 81.2773 61.1199 80.4473C61.5397 79.5914 61.7639 78.6398 61.7648 77.6825C61.7648 77.5742 61.7618 77.4663 61.7556 77.3584C61.7464 77.1959 61.6946 77.0427 61.5793 76.9251C61.4747 76.8188 61.3033 76.7389 61.1533 76.7458C60.9972 76.7526 60.8359 76.8047 60.727 76.9251C60.6224 77.0412 60.5415 77.1962 60.5507 77.3584C60.5706 77.7127 60.5568 78.0677 60.5111 78.4192C60.5182 78.365 60.5252 78.3107 60.5326 78.2564C60.4669 78.7458 60.3403 79.2255 60.152 79.6809C60.1722 79.632 60.1925 79.5833 60.2127 79.5343C60.0502 79.923 59.8431 80.2907 59.5895 80.6254C59.6208 80.5839 59.6524 80.5428 59.6837 80.5013C59.4705 80.7798 59.2267 81.0315 58.9522 81.2477C58.993 81.2159 59.0335 81.1838 59.0743 81.1519C58.8268 81.3447 58.5578 81.5072 58.2708 81.6307C58.3186 81.6101 58.3665 81.5896 58.4146 81.569C58.1689 81.6725 57.9113 81.7412 57.6482 81.7773C57.7016 81.7702 57.7549 81.7627 57.8083 81.7555C57.5065 81.7954 57.2013 81.7926 56.8999 81.7514C56.9532 81.7589 57.0066 81.7661 57.06 81.7736C56.7462 81.7293 56.4398 81.6445 56.1473 81.5206C56.1954 81.5412 56.2433 81.5618 56.2914 81.5824C56.0209 81.4664 55.7654 81.3179 55.5324 81.136C55.5732 81.1682 55.6136 81.2 55.6544 81.2318C55.4606 81.079 55.2849 80.9046 55.1337 80.7081C55.165 80.7493 55.1965 80.7907 55.2278 80.8319C55.0938 80.6554 54.9812 80.4638 54.8948 80.2586C54.915 80.3073 54.9352 80.3562 54.9555 80.4049C54.8662 80.1887 54.812 79.9645 54.7813 79.7324C54.7883 79.7867 54.7957 79.8409 54.8028 79.8952C54.7141 79.2202 54.6832 78.4691 54.2136 77.9336C53.9115 77.5892 53.4073 77.4669 52.9767 77.5892C52.5259 77.7171 52.1772 78.073 51.8748 78.4183C51.5574 78.7811 51.2743 79.1734 50.9827 79.5577C51.014 79.5166 51.0455 79.4751 51.0768 79.4339C50.7373 79.8802 50.3828 80.3297 49.9412 80.6772C49.982 80.6451 50.0224 80.6133 50.0632 80.5814C49.859 80.7396 49.636 80.87 49.3996 80.972C49.4474 80.9514 49.4952 80.9308 49.5434 80.9102C49.3204 81.0041 49.0886 81.0718 48.8494 81.1058C48.9027 81.0983 48.9561 81.0911 49.0095 81.0839C48.8202 81.1092 48.6295 81.1126 48.4399 81.0874C48.4933 81.0949 48.5467 81.102 48.6 81.1092C48.4559 81.0886 48.3157 81.0518 48.1812 80.9957C48.2292 81.0163 48.2771 81.0368 48.3252 81.0574C48.2091 81.0072 48.1005 80.9439 47.9998 80.8668C48.0404 80.8987 48.0811 80.9308 48.1217 80.9626C48.0155 80.879 47.9223 80.7823 47.8398 80.6747C47.8713 80.7159 47.9027 80.7574 47.9341 80.7985C47.82 80.6448 47.7316 80.4757 47.6573 80.2988C47.6776 80.3478 47.6978 80.3965 47.7181 80.4451C47.5186 79.9604 47.3881 79.4401 47.2585 78.9323C47.1218 78.3971 47.0052 77.8562 46.9092 77.3116C46.854 76.9984 46.8058 76.6837 46.764 76.3684C46.7711 76.4226 46.7783 76.4769 46.7855 76.5312C46.774 76.4438 46.763 76.3565 46.7525 76.2692C46.7323 76.1007 46.6987 75.9604 46.5761 75.8359C46.4716 75.7296 46.3001 75.6494 46.1501 75.6563C45.9942 75.6634 45.8326 75.7155 45.7241 75.8359C45.6236 75.947 45.5287 76.1117 45.5476 76.2692Z"
            fill="#100F0D" />
        <path
            d="M29.9438 60.9538C30.1287 62.6218 30.3135 64.2903 30.4983 65.9587C30.6625 67.4418 30.8413 68.9715 31.5689 70.2676C32.6314 72.1607 34.7496 73.263 36.8781 73.5159C39.0066 73.7688 41.1549 73.2759 43.192 72.5993C43.796 72.3986 44.3996 72.1793 44.9441 71.8462C47.8494 70.0689 48.076 65.9494 47.9642 62.5029C47.936 61.6328 47.8941 60.7151 47.4351 59.9802C46.9415 59.1895 46.0419 58.75 45.143 58.5477C41.804 57.797 38.4032 59.7997 34.996 59.5051C33.9374 59.4136 32.8688 59.1012 31.8298 59.3262C30.7907 59.5512 29.8112 60.6191 30.1741 61.6345"
            fill="#F7906D" />
    </g>
</svg>
    