<svg width="74" height="96" viewBox="0 0 74 96" fill="none" xmlns="http://www.w3.org/2000/svg">
    <path
        d="M17.2322 94.7678C18.2085 95.7441 19.7915 95.7441 20.7678 94.7678L36.6777 78.8579C37.654 77.8816 37.654 76.2986 36.6777 75.3223C35.7014 74.346 34.1184 74.346 33.1421 75.3223L19 89.4645L4.85786 75.3223C3.88155 74.346 2.29864 74.346 1.32233 75.3223C0.346018 76.2986 0.346018 77.8816 1.32233 78.8579L17.2322 94.7678ZM16.5 33L16.5 93L21.5 93L21.5 33L16.5 33Z"
        fill="#AFBC00" />
    <path
        d="M53.7322 94.7678C54.7085 95.7441 56.2915 95.7441 57.2678 94.7678L73.1777 78.8579C74.154 77.8816 74.154 76.2986 73.1777 75.3223C72.2014 74.346 70.6184 74.346 69.6421 75.3223L55.5 89.4645L41.3579 75.3223C40.3816 74.346 38.7986 74.346 37.8223 75.3223C36.846 76.2986 36.846 77.8816 37.8223 78.8579L53.7322 94.7678ZM53 33L53 93L58 93L58 33L53 33Z"
        fill="#AFBC00" />
    <rect x="5" width="64.2174" height="62.8511" rx="31.4255" fill="white" />
    <mask id="mask0_486_29564" style="mask-type:alpha" maskUnits="userSpaceOnUse" x="5" y="0"
        width="65" height="63">
        <rect x="5" width="64.2174" height="62.8511" rx="31.4255" fill="#F2FE53" />
    </mask>
    <g mask="url(#mask0_486_29564)">
        <path
            d="M59.3289 66.2464L59.7032 66.1958C59.7032 66.196 59.7032 66.1963 59.7031 66.1965L59.329 66.2468M59.3289 66.2464L59.329 66.2468M59.3289 66.2464L59.3288 66.2465M59.3289 66.2464L59.2999 66.1385M59.329 66.2468L59.3289 66.2468M59.329 66.2468L59.4193 66.5839L59.3289 66.2468M59.3289 66.2468L59.3288 66.2465M59.3289 66.2468L58.9286 66.3006L59.3288 66.2465M59.3288 66.2465L59.2999 66.1385M59.2999 66.1385L59.2999 66.1385M59.2999 66.1385L59.6979 66.085L59.2999 66.1383M59.2999 66.1385L59.2999 66.1383M59.2999 66.1385L58.9138 66.1904C58.9138 66.1903 58.9138 66.1901 58.9138 66.19L59.2998 66.1383M59.2999 66.1385L59.2998 66.1383M59.2998 66.1383L59.2999 66.1383M59.2998 66.1383L59.1603 65.6181C59.0445 65.6491 58.9408 65.7155 58.8615 65.8015C58.7004 64.6027 58.5392 63.4039 58.3777 62.2052L59.1619 62.0997C59.3233 63.2998 59.4847 64.4998 59.6461 65.6998C59.6207 65.6814 59.597 65.6671 59.5771 65.6567C59.4831 65.6076 59.3416 65.5695 59.1604 65.618L59.2999 66.1383M59.1618 62.0996C58.9589 60.5908 58.756 59.082 58.553 57.5732C58.1728 54.747 57.7927 51.9207 57.4126 49.0944C57.2463 47.8583 57.0815 46.6219 56.917 45.3854C56.9015 45.2692 56.886 45.1531 56.8706 45.0369C56.299 40.7424 55.7274 36.4475 55.0942 32.1622C54.9255 31.0206 54.7499 29.8802 54.5668 28.7411L59.1618 62.0996Z"
            fill="#100F0D" stroke="black" stroke-width="2" />
        <path
            d="M16.1065 35.0802C16.5446 35.1651 16.9841 35.2429 17.4248 35.3129C17.8899 35.3868 18.3563 35.4523 18.8235 35.5105C19.2685 35.5658 19.7143 35.6135 20.1608 35.6536C20.6051 35.6935 21.0501 35.7257 21.4954 35.7503C21.9408 35.775 22.3866 35.792 22.8325 35.8012C22.8882 35.8024 22.944 35.8034 22.9997 35.8044C23.0825 35.8058 23.1723 35.7665 23.2305 35.7071C23.2872 35.6497 23.3298 35.5551 23.3262 35.4724C23.3224 35.3866 23.2946 35.2975 23.2305 35.2377C23.1661 35.1775 23.0887 35.142 22.9997 35.1404C22.3932 35.1302 21.787 35.1061 21.1815 35.0676C20.5783 35.0295 19.976 34.9772 19.3752 34.9111C19.0359 34.8738 18.6972 34.8321 18.359 34.7859C18.388 34.7899 18.4169 34.7938 18.4458 34.7978C17.88 34.7204 17.3158 34.6308 16.7538 34.5289C16.5957 34.5001 16.4378 34.4705 16.2801 34.4399C16.1927 34.4229 16.1075 34.4263 16.0285 34.4733C15.9608 34.5137 15.8962 34.5927 15.8785 34.6718C15.8595 34.7567 15.8636 34.8522 15.9114 34.9276C15.9554 34.9969 16.0238 35.064 16.1065 35.0802Z"
            fill="#100F0D" />
        <path
            d="M57.2275 32.8434C56.3014 32.7473 55.3671 32.8705 54.4611 33.0666C53.5633 33.261 52.6836 33.5312 51.7913 33.7488C51.3606 33.8538 50.926 33.9414 50.4871 34.0018C50.5159 33.9978 50.5449 33.994 50.5737 33.99C49.8934 34.0826 49.2016 34.1116 48.5195 34.0206C48.5485 34.0243 48.5773 34.0284 48.6063 34.0324C48.1783 33.9738 47.7573 33.8667 47.3583 33.6972C47.3845 33.7082 47.4103 33.7195 47.4365 33.7305C47.1766 33.6188 46.9284 33.4815 46.6966 33.3183C46.63 33.2715 46.5204 33.2637 46.4449 33.2849C46.3691 33.3062 46.2872 33.3655 46.2497 33.4375C46.1621 33.6067 46.2167 33.7858 46.367 33.8917C47.3367 34.5736 48.5451 34.7815 49.7038 34.7334C50.3027 34.7084 50.9001 34.6206 51.4868 34.4978C52.1177 34.3657 52.7388 34.189 53.3612 34.0225C54.0853 33.8288 54.8139 33.644 55.5567 33.5409C55.5277 33.5449 55.4989 33.549 55.4699 33.553C56.0524 33.4732 56.6421 33.4466 57.2275 33.5073C57.3057 33.5157 57.405 33.4646 57.4583 33.4101C57.5151 33.3526 57.5576 33.2581 57.5539 33.1754C57.5502 33.0897 57.5225 33.0005 57.4583 32.9406C57.391 32.8778 57.3184 32.8528 57.2275 32.8434Z"
            fill="#100F0D" />
        <path
            d="M40.486 34.0021C38.9694 33.9607 37.4519 33.9609 35.9355 34.0031C34.4191 34.0456 32.9038 34.1299 31.3919 34.256C30.54 34.3273 29.6892 34.4118 28.8398 34.5093C28.7506 34.5197 28.6749 34.5395 28.609 34.6066C28.5524 34.6642 28.5098 34.7587 28.5134 34.8414C28.5172 34.9271 28.5449 35.0162 28.609 35.0761C28.6686 35.1317 28.7556 35.183 28.8398 35.1734C30.3473 35.0002 31.8592 34.8683 33.3737 34.7788C34.8882 34.6891 36.405 34.6414 37.922 34.6358C38.7767 34.6326 39.6315 34.6428 40.486 34.6662C40.6567 34.6709 40.8201 34.5101 40.8124 34.3343C40.8043 34.1503 40.6689 34.0071 40.486 34.0021Z"
            fill="#100F0D" />
        <path
            d="M40.2358 32.4511C39.564 32.1699 38.8232 32.9126 38.8106 33.6515C38.7979 34.3901 39.2569 35.0431 39.7197 35.6127C40.1825 36.1823 40.6903 36.7719 40.8081 37.5009C40.8736 37.908 40.8355 38.3885 41.1413 38.6593C41.3171 38.815 41.5623 38.8531 41.7934 38.8851C42.6342 39.0012 43.475 39.1176 44.3158 39.2337C45.0995 39.3419 45.9591 39.4345 46.6247 39.0004C47.391 38.5005 47.6261 37.4902 47.7968 36.5809C48.071 35.1211 48.3451 33.661 48.6192 32.2012C48.6659 31.9523 48.7068 31.6724 48.5642 31.4644C48.3087 31.0917 47.7433 31.259 47.3349 31.4432C45.2033 32.4053 42.8178 32.7776 40.5005 32.5097"
            fill="#F7906D" />
        <path
            d="M29.6786 40.8656C29.735 41.335 29.8131 41.8011 29.9212 42.2613C29.9727 42.4806 30.0304 42.6983 30.0942 42.9143C30.1563 43.1244 30.2218 43.3388 30.328 43.5308C30.4333 43.7209 30.5878 43.8903 30.7771 43.9957C30.9548 44.0948 31.1525 44.143 31.3542 44.1494C31.536 44.1551 31.7248 44.1235 31.8974 44.0659C32.0739 44.0071 32.2469 43.9251 32.3994 43.8166C32.7862 43.5415 33.0596 43.1495 33.3446 42.7742C33.3276 42.7967 33.3105 42.8191 33.2936 42.8415C33.4537 42.6307 33.6196 42.4068 33.8271 42.2415C33.805 42.2587 33.7831 42.276 33.761 42.2934C33.8065 42.2582 33.8544 42.2275 33.907 42.2047C33.881 42.2158 33.855 42.227 33.8289 42.2381C33.861 42.2253 33.8931 42.216 33.927 42.2106C33.8981 42.2145 33.8692 42.2185 33.8402 42.2224C33.874 42.2182 33.907 42.2183 33.9406 42.2229C33.9117 42.2188 33.8828 42.215 33.8539 42.2109C33.882 42.2153 33.9087 42.2226 33.9351 42.2332C33.909 42.2221 33.8831 42.2109 33.8572 42.1998C33.8841 42.2116 33.9089 42.2265 33.9323 42.2445C33.9102 42.2273 33.8883 42.2099 33.8662 42.1927C33.8913 42.2133 33.9132 42.2366 33.933 42.2626C33.916 42.2401 33.8991 42.2177 33.882 42.1954C33.9114 42.2352 33.9343 42.279 33.9537 42.3248C33.9428 42.2983 33.9318 42.2719 33.9208 42.2456C33.9807 42.3917 34.0044 42.5509 34.0252 42.7069C34.0214 42.6775 34.0174 42.6481 34.0136 42.6187C34.0431 42.8445 34.0594 43.0706 34.1465 43.2831C34.24 43.5112 34.3683 43.7157 34.5425 43.8905C34.8559 44.2051 35.2824 44.4186 35.7176 44.4847C35.8432 44.5036 35.9689 44.5185 36.096 44.5178C36.2206 44.5171 36.3451 44.5023 36.4679 44.4813C36.698 44.4419 36.921 44.3508 37.1221 44.2317C37.5508 43.9777 37.8953 43.5792 38.1159 43.1294C38.3434 42.6657 38.4649 42.1501 38.4654 41.6314C38.4654 41.5727 38.4637 41.5143 38.4604 41.4558C38.4554 41.3677 38.4273 41.2848 38.3648 41.2211C38.3082 41.1634 38.2153 41.1202 38.134 41.1239C38.0495 41.1276 37.9621 41.1558 37.9031 41.2211C37.8464 41.2839 37.8025 41.3679 37.8075 41.4558C37.8183 41.6478 37.8108 41.8401 37.7861 42.0306C37.7899 42.0012 37.7937 41.9718 37.7977 41.9424C37.7622 42.2075 37.6935 42.4675 37.5915 42.7142C37.6025 42.6877 37.6134 42.6613 37.6244 42.6348C37.5363 42.8453 37.4242 43.0446 37.2867 43.2259C37.3037 43.2035 37.3208 43.1812 37.3378 43.1587C37.2223 43.3096 37.0902 43.446 36.9414 43.5631C36.9636 43.5459 36.9855 43.5285 37.0076 43.5112C36.8735 43.6157 36.7278 43.7037 36.5722 43.7706C36.5981 43.7595 36.6241 43.7483 36.6502 43.7372C36.5171 43.7933 36.3775 43.8305 36.2349 43.8501C36.2638 43.8462 36.2927 43.8421 36.3216 43.8382C36.1581 43.8599 35.9928 43.8583 35.8294 43.836C35.8584 43.8401 35.8873 43.844 35.9162 43.848C35.7462 43.824 35.5802 43.7781 35.4217 43.711C35.4478 43.7221 35.4737 43.7333 35.4998 43.7444C35.3532 43.6816 35.2148 43.6011 35.0885 43.5026C35.1106 43.52 35.1325 43.5372 35.1546 43.5545C35.0496 43.4717 34.9544 43.3772 34.8725 43.2707C34.8894 43.293 34.9065 43.3155 34.9235 43.3378C34.8509 43.2422 34.7899 43.1384 34.743 43.0272C34.754 43.0536 34.765 43.0801 34.7759 43.1065C34.7276 42.9893 34.6982 42.8678 34.6816 42.7421C34.6854 42.7715 34.6894 42.8009 34.6932 42.8303C34.6452 42.4646 34.6284 42.0576 34.374 41.7674C34.2103 41.5809 33.9371 41.5146 33.7038 41.5809C33.4596 41.6502 33.2706 41.843 33.1068 42.0301C32.9348 42.2266 32.7814 42.4392 32.6234 42.6474C32.6403 42.6251 32.6575 42.6027 32.6744 42.5803C32.4905 42.8222 32.2984 43.0657 32.0591 43.254C32.0812 43.2366 32.1031 43.2193 32.1252 43.2021C32.0146 43.2878 31.8937 43.3584 31.7656 43.4137C31.7916 43.4025 31.8175 43.3914 31.8436 43.3802C31.7228 43.4311 31.5971 43.4678 31.4675 43.4862C31.4964 43.4821 31.5254 43.4783 31.5543 43.4744C31.4517 43.4881 31.3484 43.4899 31.2457 43.4762C31.2746 43.4803 31.3035 43.4842 31.3324 43.4881C31.2543 43.4769 31.1784 43.457 31.1055 43.4265C31.1315 43.4377 31.1575 43.4489 31.1835 43.46C31.1206 43.4328 31.0618 43.3985 31.0072 43.3567C31.0292 43.374 31.0513 43.3914 31.0733 43.4086C31.0157 43.3633 30.9652 43.3109 30.9205 43.2526C30.9376 43.2749 30.9546 43.2974 30.9716 43.3197C30.9098 43.2364 30.8619 43.1448 30.8217 43.049C30.8326 43.0755 30.8436 43.1019 30.8546 43.1283C30.7465 42.8656 30.6758 42.5837 30.6056 42.3086C30.5315 42.0186 30.4683 41.7255 30.4163 41.4304C30.3864 41.2608 30.3603 41.0902 30.3376 40.9194C30.3415 40.9488 30.3454 40.9782 30.3493 41.0076C30.3431 40.9603 30.3371 40.913 30.3314 40.8656C30.3204 40.7744 30.3023 40.6983 30.2358 40.6309C30.1792 40.5733 30.0863 40.5298 30.005 40.5335C29.9206 40.5374 29.833 40.5657 29.7742 40.6309C29.7197 40.6911 29.6683 40.7803 29.6786 40.8656Z"
            fill="#100F0D" />
        <path
            d="M21.2241 32.5675C21.3243 33.4713 21.4244 34.3753 21.5245 35.2793C21.6135 36.0829 21.7104 36.9116 22.1046 37.6139C22.6803 38.6396 23.828 39.2369 24.9812 39.3739C26.1345 39.5109 27.2985 39.2439 28.4022 38.8773C28.7295 38.7685 29.0565 38.6497 29.3516 38.4692C30.9257 37.5063 31.0485 35.2742 30.9879 33.4068C30.9726 32.9354 30.9499 32.4382 30.7012 32.04C30.4338 31.6116 29.9464 31.3735 29.4593 31.2638C27.6502 30.8571 25.8076 31.9422 23.9615 31.7826C23.3879 31.733 22.8089 31.5638 22.2459 31.6857C21.683 31.8076 21.1523 32.3862 21.3489 32.9363"
            fill="#F7906D" />
    </g>
</svg>
    