<svg width="60" height="59" viewBox="0 0 60 59" fill="none" xmlns="http://www.w3.org/2000/svg">
    <rect width="60" height="58.7234" rx="29.3617" fill="#F2FE53" />
    <mask id="mask0_619_4658" style="mask-type:alpha" maskUnits="userSpaceOnUse" x="0" y="0"
        width="60" height="59">
        <rect width="60" height="58.7234" rx="29.3617" fill="#F2FE53" />
    </mask>
    <g mask="url(#mask0_619_4658)">
        <path
            d="M46.3113 26.8536C46.3113 26.8536 46.3113 26.8536 46.3113 26.8536L45.582 26.9702M46.3113 26.8536L50.313 61.3982C50.1661 60.3055 50.0192 59.2127 49.872 58.12C49.3273 54.0696 48.7826 50.0192 48.2377 45.9688L48.9702 45.8703M46.3113 26.8536L45.582 26.9702M46.3113 26.8536L43.2435 14.6855C44.146 18.7549 44.924 22.8524 45.582 26.9702M45.582 26.9702C45.7516 28.0319 45.9146 29.0946 46.0726 30.1581C46.5599 33.4393 46.9992 36.728 47.4385 40.0163C47.5492 40.8455 47.66 41.6748 47.7715 42.5038C47.9269 43.6588 48.0823 44.8138 48.2377 45.9688L48.9702 45.8703M48.9702 45.8703C49.3253 48.5108 49.6805 51.1513 50.0357 53.7918C50.2254 55.2017 50.415 56.6115 50.6046 58.0213L48.9702 45.8703Z"
            fill="#100F0D" stroke="black" stroke-width="2" />
        <path
            d="M10.3772 32.7765C10.7866 32.8558 11.1972 32.9284 11.6089 32.9939C12.0435 33.0629 12.4792 33.1241 12.9158 33.1785C13.3315 33.2301 13.7481 33.2748 14.1653 33.3122C14.5804 33.3494 14.9961 33.3795 15.4122 33.4026C15.8284 33.4256 16.2448 33.4415 16.6615 33.4501C16.7136 33.4512 16.7656 33.4522 16.8177 33.4531C16.8951 33.4544 16.979 33.4177 17.0334 33.3622C17.0863 33.3085 17.1261 33.2202 17.1227 33.1429C17.1192 33.0627 17.0933 32.9795 17.0334 32.9236C16.9732 32.8674 16.9008 32.8342 16.8177 32.8327C16.251 32.8231 15.6846 32.8006 15.1189 32.7647C14.5554 32.7291 13.9926 32.6802 13.4312 32.6184C13.1143 32.5836 12.7978 32.5446 12.4818 32.5015C12.5088 32.5052 12.5358 32.5089 12.5629 32.5126C12.0342 32.4403 11.5071 32.3565 10.982 32.2614C10.8343 32.2345 10.6867 32.2068 10.5394 32.1782C10.4577 32.1623 10.3781 32.1655 10.3044 32.2094C10.2411 32.2472 10.1808 32.3209 10.1642 32.3949C10.1464 32.4742 10.1503 32.5635 10.1949 32.6339C10.236 32.6986 10.2999 32.7613 10.3772 32.7765Z"
            fill="#100F0D" />
        <path
            d="M48.797 30.6866C47.9318 30.5968 47.0588 30.7119 46.2123 30.8951C45.3734 31.0768 44.5515 31.3292 43.7178 31.5325C43.3154 31.6306 42.9093 31.7124 42.4992 31.7689C42.5261 31.7651 42.5533 31.7616 42.5802 31.7578C41.9446 31.8444 41.2982 31.8715 40.6609 31.7865C40.688 31.79 40.7149 31.7937 40.742 31.7975C40.3421 31.7428 39.9488 31.6427 39.576 31.4843C39.6004 31.4946 39.6246 31.5052 39.649 31.5154C39.4062 31.4111 39.1743 31.2828 38.9577 31.1302C38.8955 31.0866 38.7931 31.0793 38.7225 31.0991C38.6517 31.119 38.5752 31.1744 38.5402 31.2417C38.4583 31.3998 38.5094 31.5671 38.6497 31.666C39.5557 32.3031 40.6848 32.4974 41.7674 32.4524C42.327 32.4291 42.8851 32.3471 43.4334 32.2324C44.0228 32.1089 44.6031 31.9438 45.1847 31.7882C45.8612 31.6073 46.5419 31.4346 47.236 31.3383C47.2088 31.342 47.1819 31.3458 47.1548 31.3496C47.6991 31.275 48.25 31.2502 48.797 31.3069C48.8701 31.3147 48.9628 31.267 49.0127 31.2161C49.0657 31.1624 49.1055 31.074 49.102 30.9967C49.0985 30.9167 49.0726 30.8334 49.0127 30.7774C48.9498 30.7187 48.8819 30.6954 48.797 30.6866Z"
            fill="#100F0D" />
        <path
            d="M33.1553 31.7692C31.7383 31.7305 30.3204 31.7307 28.9036 31.7701C27.4868 31.8098 26.071 31.8885 24.6584 32.0064C23.8624 32.073 23.0675 32.1519 22.2739 32.243C22.1905 32.2528 22.1199 32.2713 22.0583 32.3339C22.0054 32.3878 21.9656 32.4761 21.969 32.5534C21.9725 32.6334 21.9984 32.7167 22.0583 32.7726C22.114 32.8246 22.1953 32.8725 22.2739 32.8635C23.6824 32.7017 25.0951 32.5784 26.51 32.4948C27.9251 32.411 29.3423 32.3665 30.7596 32.3613C31.5582 32.3583 32.3569 32.3678 33.1553 32.3897C33.3147 32.394 33.4674 32.2438 33.4602 32.0795C33.4527 31.9076 33.3262 31.7739 33.1553 31.7692Z"
            fill="#100F0D" />
        <path
            d="M32.9217 30.3199C32.294 30.0572 31.6019 30.7512 31.5901 31.4415C31.5783 32.1316 32.0071 32.7417 32.4395 33.2739C32.8719 33.8061 33.3463 34.357 33.4564 35.0381C33.5176 35.4185 33.482 35.8674 33.7678 36.1204C33.932 36.2659 34.1611 36.3015 34.3771 36.3314C35.1626 36.4399 35.9482 36.5486 36.7338 36.6571C37.466 36.7582 38.2692 36.8447 38.8911 36.4391C39.607 35.972 39.8267 35.0282 39.9862 34.1785C40.2423 32.8146 40.4985 31.4504 40.7546 30.0865C40.7982 29.8539 40.8364 29.5924 40.7032 29.398C40.4644 29.0498 39.9362 29.2061 39.5546 29.3783C37.563 30.2772 35.3341 30.625 33.1691 30.3747"
            fill="#F7906D" />
        <path
            d="M23.0579 38.1819C23.1106 38.6204 23.1836 39.0559 23.2845 39.4859C23.3327 39.6908 23.3866 39.8942 23.4462 40.096C23.5043 40.2923 23.5654 40.4927 23.6647 40.6721C23.763 40.8497 23.9074 41.0079 24.0843 41.1065C24.2503 41.199 24.435 41.244 24.6235 41.25C24.7933 41.2554 24.9697 41.2258 25.131 41.172C25.2959 41.117 25.4575 41.0404 25.6 40.9391C25.9615 40.682 26.2169 40.3158 26.4831 39.9651C26.4673 39.9861 26.4513 40.0071 26.4355 40.028C26.5851 39.8311 26.7401 39.6218 26.934 39.4674C26.9133 39.4835 26.8928 39.4996 26.8722 39.5159C26.9147 39.483 26.9594 39.4543 27.0087 39.433C26.9843 39.4434 26.9601 39.4538 26.9357 39.4642C26.9656 39.4522 26.9956 39.4436 27.0273 39.4385C27.0003 39.4421 26.9733 39.4459 26.9462 39.4496C26.9778 39.4456 27.0087 39.4458 27.04 39.45C27.013 39.4462 26.986 39.4426 26.959 39.4388C26.9852 39.4429 27.0102 39.4497 27.0349 39.4597C27.0105 39.4492 26.9863 39.4388 26.9621 39.4284C26.9872 39.4395 27.0104 39.4534 27.0323 39.4702C27.0116 39.4541 26.9911 39.4379 26.9705 39.4218C26.9939 39.441 27.0144 39.4628 27.0329 39.4871C27.017 39.4661 27.0012 39.4451 26.9852 39.4243C27.0127 39.4616 27.0341 39.5025 27.0523 39.5453C27.042 39.5205 27.0318 39.4958 27.0215 39.4712C27.0774 39.6078 27.0996 39.7565 27.119 39.9023C27.1155 39.8748 27.1117 39.8473 27.1082 39.8198C27.1358 40.0308 27.151 40.2421 27.2324 40.4406C27.3198 40.6537 27.4396 40.8448 27.6024 41.0081C27.8952 41.3021 28.2937 41.5015 28.7003 41.5633C28.8177 41.581 28.9351 41.5948 29.0538 41.5942C29.1703 41.5936 29.2866 41.5797 29.4013 41.5601C29.6163 41.5233 29.8247 41.4382 30.0125 41.3269C30.4131 41.0896 30.7349 40.7172 30.9411 40.297C31.1537 39.8637 31.2672 39.382 31.2676 38.8974C31.2676 38.8426 31.2661 38.7879 31.263 38.7333C31.2583 38.651 31.2321 38.5735 31.1737 38.514C31.1208 38.4601 31.034 38.4197 30.958 38.4232C30.879 38.4267 30.7974 38.453 30.7422 38.514C30.6893 38.5727 30.6483 38.6512 30.653 38.7333C30.6631 38.9127 30.6561 39.0924 30.6329 39.2703C30.6365 39.2429 30.6401 39.2154 30.6438 39.1879C30.6106 39.4357 30.5465 39.6785 30.4511 39.9091C30.4614 39.8843 30.4716 39.8596 30.4819 39.8348C30.3996 40.0316 30.2948 40.2178 30.1664 40.3872C30.1822 40.3662 30.1982 40.3454 30.2141 40.3244C30.1062 40.4654 29.9827 40.5928 29.8438 40.7022C29.8644 40.6861 29.8849 40.6698 29.9056 40.6537C29.7803 40.7513 29.6441 40.8336 29.4988 40.8961C29.523 40.8857 29.5472 40.8753 29.5716 40.8649C29.4473 40.9173 29.3168 40.952 29.1836 40.9703C29.2106 40.9667 29.2377 40.9629 29.2647 40.9593C29.1119 40.9795 28.9574 40.9781 28.8048 40.9572C28.8318 40.961 28.8588 40.9647 28.8858 40.9684C28.727 40.946 28.5719 40.9031 28.4238 40.8404C28.4482 40.8508 28.4724 40.8612 28.4968 40.8716C28.3598 40.8129 28.2305 40.7377 28.1125 40.6457C28.1332 40.662 28.1537 40.6781 28.1743 40.6942C28.0762 40.6168 27.9872 40.5285 27.9107 40.429C27.9265 40.4499 27.9425 40.4709 27.9584 40.4917C27.8905 40.4024 27.8335 40.3054 27.7897 40.2015C27.8 40.2261 27.8102 40.2509 27.8205 40.2756C27.7753 40.1661 27.7478 40.0526 27.7323 39.9351C27.7359 39.9626 27.7396 39.9901 27.7432 40.0175C27.6983 39.6758 27.6826 39.2956 27.4449 39.0245C27.292 38.8502 27.0368 38.7883 26.8188 38.8502C26.5905 38.9149 26.414 39.0951 26.2609 39.2699C26.1003 39.4535 25.957 39.6522 25.8093 39.8467C25.8251 39.8258 25.8411 39.8048 25.857 39.784C25.6851 40.01 25.5056 40.2375 25.2821 40.4134C25.3027 40.3971 25.3232 40.381 25.3438 40.3649C25.2404 40.445 25.1276 40.511 25.0079 40.5626C25.0321 40.5522 25.0563 40.5418 25.0807 40.5314C24.9678 40.5789 24.8504 40.6132 24.7293 40.6304C24.7564 40.6266 24.7834 40.6229 24.8104 40.6193C24.7146 40.6321 24.618 40.6338 24.5221 40.6211C24.5491 40.6248 24.5761 40.6285 24.6031 40.6321C24.5302 40.6217 24.4592 40.6031 24.3911 40.5746C24.4154 40.5851 24.4396 40.5955 24.464 40.6059C24.4052 40.5805 24.3503 40.5484 24.2993 40.5094C24.3198 40.5255 24.3404 40.5418 24.361 40.5579C24.3072 40.5156 24.26 40.4666 24.2183 40.4121C24.2342 40.433 24.2501 40.454 24.266 40.4748C24.2082 40.397 24.1635 40.3114 24.1259 40.2219C24.1361 40.2467 24.1464 40.2713 24.1566 40.2959C24.0556 40.0505 23.9896 39.7872 23.924 39.5301C23.8548 39.2591 23.7958 38.9853 23.7472 38.7096C23.7192 38.5511 23.6948 38.3918 23.6736 38.2321C23.6773 38.2596 23.6809 38.2871 23.6845 38.3145C23.6787 38.2703 23.6732 38.2261 23.6678 38.1819C23.6576 38.0966 23.6406 38.0256 23.5785 37.9626C23.5256 37.9087 23.4388 37.8682 23.3629 37.8716C23.284 37.8753 23.2022 37.9016 23.1472 37.9626C23.0964 38.0188 23.0483 38.1022 23.0579 38.1819Z"
            fill="#100F0D" />
        <path
            d="M15.1582 30.4288C15.2518 31.2732 15.3453 32.1178 15.4389 32.9625C15.522 33.7133 15.6125 34.4876 15.9808 35.1438C16.5187 36.1021 17.591 36.6601 18.6686 36.7882C19.7461 36.9162 20.8336 36.6667 21.8649 36.3242C22.1707 36.2226 22.4762 36.1115 22.7519 35.9429C24.2226 35.0432 24.3374 32.9577 24.2808 31.213C24.2665 30.7725 24.2453 30.3079 24.0129 29.9359C23.763 29.5356 23.3076 29.3131 22.8526 29.2107C21.1623 28.8307 19.4407 29.8445 17.7158 29.6954C17.1799 29.6491 16.6389 29.4909 16.1129 29.6048C15.5869 29.7187 15.0911 30.2594 15.2747 30.7734"
            fill="#F7906D" />
    </g>
</svg>
    