<svg width="35" height="7" viewBox="0 0 35 7" fill="none" xmlns="http://www.w3.org/2000/svg">
    <path
        d="M11.9996 3.49988C11.9996 3.28647 11.9051 3.08427 11.7417 2.94881L8.38882 0.162856C8.26221 0.0575259 8.10303 0 7.93916 0H0.707706C0.42143 0 0.163528 0.173814 0.0539315 0.440757C-0.0556459 0.707451 0.0048202 1.01448 0.207437 1.21867L2.46829 3.49987L0.207437 5.78133C0.00506913 5.98552 -0.0553995 6.29255 0.0539315 6.55949C0.163509 6.82619 0.421651 7 0.707706 7H7.93979C8.10391 7 8.26309 6.94248 8.38945 6.83715L11.7424 4.05094C11.9057 3.91547 12 3.71327 12 3.49987L11.9996 3.49988ZM7.68545 5.57218H2.4157L3.96901 4.00463C4.24542 3.72573 4.24542 3.27376 3.96901 2.99512L2.4157 1.42783H7.68545L10.1791 3.49988L7.68545 5.57218Z"
        fill="#F2FE53" />
    <path
        d="M24 3.50013C24 3.28672 23.8973 3.08453 23.7206 2.94906L20.0872 0.162856C19.9501 0.0575258 19.7776 0 19.6001 0H11.7666C11.4565 0 11.1771 0.173814 11.0584 0.440507C10.9397 0.70745 11.0052 1.01448 11.2247 1.21867L13.6738 3.50013L11.2247 5.78133C11.0055 5.98552 10.94 6.29255 11.0584 6.55949C11.1771 6.82619 11.4568 7 11.7666 7H19.5994C19.7772 7 19.9494 6.94248 20.0865 6.83715L23.7199 4.05119C23.8969 3.91598 23.9996 3.71403 23.9996 3.50013H24ZM19.325 5.57243H13.6176L15.3002 4.00514C15.5996 3.72624 15.5996 3.27402 15.3002 2.99512L13.6176 1.42757H19.3255L22.0275 3.50013L19.325 5.57243Z"
        fill="#F2FE53" />
    <path
        d="M34.7421 2.94917L31.3891 0.162862C31.2625 0.057528 31.1033 0 30.9394 0H23.7077C23.4214 0 23.1635 0.173821 23.0539 0.440773C22.9444 0.707476 23.0048 1.01452 23.2074 1.21871L25.4686 3.5L23.2074 5.78128C23.0051 5.98548 22.9446 6.29252 23.0539 6.55948C23.1635 6.82618 23.4217 7 23.7077 7H30.9394C31.1035 7 31.2625 6.94248 31.3891 6.83714L34.7421 4.05083C34.9052 3.91561 35 3.7134 35 3.49999C35 3.28682 34.9052 3.08439 34.7421 2.94917ZM30.6857 5.57235H25.416L26.9694 4.005C27.1022 3.87102 27.1767 3.68949 27.1767 3.49973C27.1767 3.31047 27.1022 3.12869 26.9694 2.99496L25.4158 1.42735H30.6857L33.1794 3.49999L30.6857 5.57235Z"
        fill="#F2FE53" />
</svg>
    