<svg width="25" height="17" viewBox="0 0 25 17" fill="none" xmlns="http://www.w3.org/2000/svg">
    <path
        d="M5.328 14.892V16.8H7.668V14.928C10.422 14.64 12.06 13.038 12.06 10.752C12.06 8.664 10.728 7.44 8.1 7.116L6.084 6.864C5.4 6.774 4.59 6.558 4.59 5.766C4.59 5.064 5.22 4.614 6.174 4.614C7.146 4.614 7.794 5.1 7.974 5.982L11.07 5.946C10.926 4.146 9.63 2.94 7.668 2.562V0.6H5.328V2.472C3.042 2.76 1.692 4.11 1.692 6.072C1.692 7.908 2.862 8.97 5.256 9.276L7.47 9.564C8.154 9.654 9.018 9.924 9.018 10.932C9.018 11.958 8.136 12.57 6.732 12.57C4.986 12.57 3.942 11.652 3.834 9.978H0.558C0.648 12.498 2.376 14.442 5.328 14.892ZM17.8436 14.892V16.8H20.1836V14.928C22.9376 14.64 24.5756 13.038 24.5756 10.752C24.5756 8.664 23.2436 7.44 20.6156 7.116L18.5996 6.864C17.9156 6.774 17.1056 6.558 17.1056 5.766C17.1056 5.064 17.7356 4.614 18.6896 4.614C19.6616 4.614 20.3096 5.1 20.4896 5.982L23.5856 5.946C23.4416 4.146 22.1456 2.94 20.1836 2.562V0.6H17.8436V2.472C15.5576 2.76 14.2076 4.11 14.2076 6.072C14.2076 7.908 15.3776 8.97 17.7716 9.276L19.9856 9.564C20.6696 9.654 21.5336 9.924 21.5336 10.932C21.5336 11.958 20.6516 12.57 19.2476 12.57C17.5016 12.57 16.4576 11.652 16.3496 9.978H13.0736C13.1636 12.498 14.8916 14.442 17.8436 14.892Z"
        fill="#F2FE53" />
</svg>
    