<svg width="26" height="26" viewBox="0 0 26 26" fill="none" xmlns="http://www.w3.org/2000/svg">
<g clip-path="url(#clip0_741_5897)">
<path d="M13 26C20.1797 26 26 20.1797 26 13C26 5.8203 20.1797 0 13 0C5.8203 0 0 5.8203 0 13C0 20.1797 5.8203 26 13 26Z" fill="#007AB9"/>
<path d="M20.7672 14.046V19.4056H17.6598V14.4052C17.6598 13.1496 17.2112 12.2922 16.0861 12.2922C15.2275 12.2922 14.7174 12.8695 14.4922 13.4284C14.4104 13.6282 14.3893 13.9056 14.3893 14.1857V19.4054H11.2817C11.2817 19.4054 11.3234 10.9363 11.2817 10.0597H14.3895V11.384C14.3833 11.3945 14.3745 11.4047 14.3689 11.4146H14.3895V11.384C14.8025 10.7486 15.5389 9.84021 17.1901 9.84021C19.2345 9.84021 20.7672 11.1759 20.7672 14.046ZM8.03088 5.55469C6.9679 5.55469 6.27246 6.25245 6.27246 7.1692C6.27246 8.06649 6.94774 8.78441 7.9901 8.78441H8.01026C9.09409 8.78441 9.76799 8.06649 9.76799 7.1692C9.74736 6.25245 9.09409 5.55469 8.03088 5.55469ZM6.45716 19.4056H9.56359V10.0597H6.45716V19.4056Z" fill="#F1F2F2"/>
</g>
<defs>
<clipPath id="clip0_741_5897">
<rect width="26" height="26" fill="white"/>
</clipPath>
</defs>
</svg>
