<svg width="118" height="117" viewBox="0 0 118 117" fill="none" xmlns="http://www.w3.org/2000/svg">
    <path
        d="M85.4163 104.249C77.6468 108.75 68.6204 111.31 58.9999 111.31C29.8413 111.31 6.18994 87.6585 6.18994 58.4999C6.18994 29.3413 29.8413 5.68994 58.9999 5.68994C68.6204 5.68994 77.6468 8.27217 85.4163 12.7511C69.6259 21.8688 58.9999 38.939 58.9999 58.4999C58.9999 78.0608 69.6259 95.1081 85.4163 104.249Z"
        fill="#F2FE53" />
    <path
        d="M111.901 33.4775C107.125 23.3542 99.5616 14.8534 90.0325 8.88917C76.7786 0.616906 61.0796 -2.01102 45.8604 1.50812C30.6413 5.00441 17.6845 14.2364 9.4122 27.4903C1.11708 40.7443 -1.51085 56.4204 2.00829 71.6624C5.52743 86.8816 14.7595 99.8384 27.9905 108.111C37.314 113.938 48.0085 117.023 58.9544 117.023H59.6628C70.563 116.886 81.1661 113.732 90.3524 107.928C93.0261 106.237 93.803 102.718 92.112 100.044C90.421 97.3704 86.9018 96.5935 84.2282 98.2845C76.8472 102.969 68.3007 105.506 59.5257 105.62C50.5222 105.734 41.7243 103.243 34.0462 98.4673C23.3745 91.7946 15.9477 81.3743 13.137 69.1259C10.3034 56.8775 12.4286 44.2634 19.1013 33.5917C32.8579 11.5857 61.9708 4.8673 83.9769 18.6239C91.655 23.4228 97.7335 30.2554 101.573 38.3905C105.32 46.32 106.783 55.1179 105.8 63.8015C105.457 66.9321 107.697 69.7657 110.85 70.1085C113.981 70.4513 116.815 68.2118 117.157 65.0583C118.368 54.2495 116.54 43.3265 111.901 33.4775Z"
        fill="black" />
    <path
        d="M77.8753 38.6647L50.3392 66.2237L40.1245 56.009C37.8851 53.7696 34.2745 53.7696 32.0351 56.009C29.7956 58.2485 29.7956 61.859 32.0351 64.0985L46.2944 78.3579C47.4142 79.4776 48.8767 80.026 50.3392 80.026C51.8017 80.026 53.2642 79.4776 54.3839 78.3579L85.9647 46.7542C88.2042 44.5147 88.2042 40.9042 85.9647 38.6647C83.7253 36.4252 80.1147 36.4252 77.8753 38.6647Z"
        fill="black" />
</svg>
    