<svg width="195" height="37" viewBox="0 0 195 37" fill="none" xmlns="http://www.w3.org/2000/svg">
    <rect x="1.68799" y="0.44043" width="30.2738" height="29.6296" rx="14.8148"
        transform="rotate(2 1.68799 0.44043)" fill="white" />
    <mask id="mask0_389_4250" style="mask-type:alpha" maskUnits="userSpaceOnUse" x="1" y="0"
        width="31" height="31">
        <rect x="1.68799" y="0.44043" width="30.2738" height="29.6296" rx="14.8148"
            transform="rotate(2 1.68799 0.44043)" fill="#9EA271" />
    </mask>
    <g mask="url(#mask0_389_4250)">
        <mask id="path-3-inside-1_389_4250" fill="white">
            <path
                d="M5.48436 31.0221C5.7399 28.3964 5.97688 25.7679 6.26573 23.1457C6.55247 20.5425 6.92228 17.9494 7.51716 15.3984C7.81299 14.1298 8.15074 12.8719 8.49047 11.6149C8.79045 10.5051 9.08903 9.3897 9.5252 8.32522C9.73637 7.80976 9.98262 7.30873 10.2769 6.8368C10.3511 6.71781 10.4283 6.60074 10.5087 6.4861C10.5809 6.38306 10.6528 6.25804 10.7453 6.17273C10.8568 6.0699 11.0349 6.0895 11.1183 6.21896C11.1841 6.32103 11.2196 6.45608 11.2648 6.56768C11.3661 6.81702 11.4673 7.06653 11.5686 7.31588C11.7952 7.87422 12.0218 8.43256 12.2484 8.99073C12.4802 9.56164 12.6885 10.1639 13.0894 10.638C13.8505 11.5385 15.0836 11.4173 16.1361 11.3849C16.7939 11.3645 17.4516 11.3444 18.1094 11.3241C18.4062 11.315 18.7319 11.34 19.0213 11.2614C19.2812 11.1911 19.4722 11.0124 19.6094 10.7824C19.7508 10.5455 19.8565 10.2846 19.9815 10.0385C20.1129 9.77995 20.25 9.52422 20.3925 9.27182C20.6852 8.75309 21.0009 8.24789 21.3383 7.75814C21.6709 7.27533 22.0239 6.80661 22.3984 6.35665C22.4484 6.29661 22.4988 6.23676 22.5496 6.17741C22.5794 6.14227 22.6211 6.06394 22.6632 6.04823C22.7279 6.02422 22.7339 6.08109 22.7449 6.13318C22.8133 6.45456 22.879 6.77667 22.9438 7.09892C23.4591 9.66272 23.8756 12.2465 24.198 14.8429C24.5232 17.461 24.7683 20.089 25.0286 22.7144C25.2901 25.3516 25.5514 27.9887 25.8128 30.6259C25.8769 31.2721 25.9409 31.9183 26.0049 32.5645C26.0153 32.668 26.1419 32.7267 26.2314 32.706C26.3412 32.6807 26.381 32.5778 26.3709 32.4756C26.1052 29.7947 25.8394 27.1139 25.5737 24.433C25.3088 21.7607 25.0596 19.0861 24.7601 16.4175C24.4637 13.7779 24.089 11.1492 23.6051 8.53855C23.4852 7.89209 23.3593 7.2469 23.2271 6.60299C23.1941 6.44209 23.1607 6.28118 23.1269 6.12042C23.0985 5.98513 23.0722 5.85751 22.9637 5.76418C22.7717 5.59872 22.5152 5.64478 22.3542 5.82665C21.5694 6.71326 20.8782 7.70012 20.2746 8.72157C19.9682 9.23983 19.687 9.77251 19.427 10.3163C19.3248 10.5302 19.2129 10.7904 18.9761 10.8771C18.8536 10.9219 18.7185 10.9233 18.5901 10.9276C18.417 10.9332 18.2439 10.9381 18.0708 10.9435C17.413 10.9638 16.7553 10.9841 16.0975 11.0042C15.5337 11.0217 14.9439 11.0771 14.3869 10.9605C13.8531 10.8487 13.4414 10.5555 13.156 10.0835C12.9742 9.78291 12.8419 9.45533 12.7099 9.13008C12.521 8.66474 12.3321 8.1994 12.1433 7.73423C11.9385 7.22968 11.7337 6.72513 11.5289 6.22058C11.442 6.00659 11.3236 5.81578 11.086 5.74851C10.5512 5.59735 10.2492 6.17754 10.0064 6.5576C9.38896 7.52423 8.9762 8.61248 8.63844 9.70749C8.27267 10.8932 7.96463 12.0998 7.65132 13.3007C7.31596 14.5861 7.00455 15.878 6.75292 17.1832C6.5028 18.4806 6.30248 19.7875 6.13245 21.098C5.78899 23.7451 5.5565 26.4064 5.29796 29.063C5.23483 29.7117 5.1717 30.3603 5.10857 31.009C5.08472 31.2541 5.4606 31.2663 5.48436 31.0221Z" />
        </mask>
        <path
            d="M5.48436 31.0221C5.7399 28.3964 5.97688 25.7679 6.26573 23.1457C6.55247 20.5425 6.92228 17.9494 7.51716 15.3984C7.81299 14.1298 8.15074 12.8719 8.49047 11.6149C8.79045 10.5051 9.08903 9.3897 9.5252 8.32522C9.73637 7.80976 9.98262 7.30873 10.2769 6.8368C10.3511 6.71781 10.4283 6.60074 10.5087 6.4861C10.5809 6.38306 10.6528 6.25804 10.7453 6.17273C10.8568 6.0699 11.0349 6.0895 11.1183 6.21896C11.1841 6.32103 11.2196 6.45608 11.2648 6.56768C11.3661 6.81702 11.4673 7.06653 11.5686 7.31588C11.7952 7.87422 12.0218 8.43256 12.2484 8.99073C12.4802 9.56164 12.6885 10.1639 13.0894 10.638C13.8505 11.5385 15.0836 11.4173 16.1361 11.3849C16.7939 11.3645 17.4516 11.3444 18.1094 11.3241C18.4062 11.315 18.7319 11.34 19.0213 11.2614C19.2812 11.1911 19.4722 11.0124 19.6094 10.7824C19.7508 10.5455 19.8565 10.2846 19.9815 10.0385C20.1129 9.77995 20.25 9.52422 20.3925 9.27182C20.6852 8.75309 21.0009 8.24789 21.3383 7.75814C21.6709 7.27533 22.0239 6.80661 22.3984 6.35665C22.4484 6.29661 22.4988 6.23676 22.5496 6.17741C22.5794 6.14227 22.6211 6.06394 22.6632 6.04823C22.7279 6.02422 22.7339 6.08109 22.7449 6.13318C22.8133 6.45456 22.879 6.77667 22.9438 7.09892C23.4591 9.66272 23.8756 12.2465 24.198 14.8429C24.5232 17.461 24.7683 20.089 25.0286 22.7144C25.2901 25.3516 25.5514 27.9887 25.8128 30.6259C25.8769 31.2721 25.9409 31.9183 26.0049 32.5645C26.0153 32.668 26.1419 32.7267 26.2314 32.706C26.3412 32.6807 26.381 32.5778 26.3709 32.4756C26.1052 29.7947 25.8394 27.1139 25.5737 24.433C25.3088 21.7607 25.0596 19.0861 24.7601 16.4175C24.4637 13.7779 24.089 11.1492 23.6051 8.53855C23.4852 7.89209 23.3593 7.2469 23.2271 6.60299C23.1941 6.44209 23.1607 6.28118 23.1269 6.12042C23.0985 5.98513 23.0722 5.85751 22.9637 5.76418C22.7717 5.59872 22.5152 5.64478 22.3542 5.82665C21.5694 6.71326 20.8782 7.70012 20.2746 8.72157C19.9682 9.23983 19.687 9.77251 19.427 10.3163C19.3248 10.5302 19.2129 10.7904 18.9761 10.8771C18.8536 10.9219 18.7185 10.9233 18.5901 10.9276C18.417 10.9332 18.2439 10.9381 18.0708 10.9435C17.413 10.9638 16.7553 10.9841 16.0975 11.0042C15.5337 11.0217 14.9439 11.0771 14.3869 10.9605C13.8531 10.8487 13.4414 10.5555 13.156 10.0835C12.9742 9.78291 12.8419 9.45533 12.7099 9.13008C12.521 8.66474 12.3321 8.1994 12.1433 7.73423C11.9385 7.22968 11.7337 6.72513 11.5289 6.22058C11.442 6.00659 11.3236 5.81578 11.086 5.74851C10.5512 5.59735 10.2492 6.17754 10.0064 6.5576C9.38896 7.52423 8.9762 8.61248 8.63844 9.70749C8.27267 10.8932 7.96463 12.0998 7.65132 13.3007C7.31596 14.5861 7.00455 15.878 6.75292 17.1832C6.5028 18.4806 6.30248 19.7875 6.13245 21.098C5.78899 23.7451 5.5565 26.4064 5.29796 29.063C5.23483 29.7117 5.1717 30.3603 5.10857 31.009C5.08472 31.2541 5.4606 31.2663 5.48436 31.0221Z"
            fill="#100F0D" />
        <path
            d="M5.48436 31.0221L3.49376 30.8284L3.49376 30.8284L5.48436 31.0221ZM6.26573 23.1457L4.27775 22.9267L4.27775 22.9267L6.26573 23.1457ZM7.51716 15.3984L9.4649 15.8526L9.4649 15.8526L7.51716 15.3984ZM8.49047 11.6149L6.55974 11.0931L6.55975 11.0931L8.49047 11.6149ZM9.5252 8.32522L11.3759 9.0834L11.3759 9.08352L9.5252 8.32522ZM10.2769 6.8368L8.5798 5.77857L8.57987 5.77846L10.2769 6.8368ZM10.5087 6.4861L12.1472 7.63298L12.1463 7.63436L10.5087 6.4861ZM10.7453 6.17272L9.38896 4.70287L9.38967 4.70222L10.7453 6.17272ZM11.1183 6.21896L12.7992 5.1352L12.7994 5.13545L11.1183 6.21896ZM11.2648 6.56768L9.4118 7.32016L9.4116 7.31967L11.2648 6.56768ZM11.5686 7.31588L13.4216 6.5634L13.4218 6.56375L11.5686 7.31588ZM12.2484 8.99073L14.1015 8.2384L14.1016 8.23847L12.2484 8.99073ZM13.0894 10.638L14.6166 9.34664L14.6168 9.34692L13.0894 10.638ZM16.1361 11.3849L16.1978 13.3839L16.1978 13.3839L16.1361 11.3849ZM18.1094 11.3241L18.0476 9.32504L18.0479 9.32504L18.1094 11.3241ZM19.0213 11.2614L18.4972 9.33134L18.4984 9.33103L19.0213 11.2614ZM19.6094 10.7824L21.327 11.8072L21.3269 11.8072L19.6094 10.7824ZM19.9815 10.0385L18.1985 9.13251L18.1985 9.13243L19.9815 10.0385ZM20.3925 9.27182L22.1343 10.2547L22.1341 10.255L20.3925 9.27182ZM21.3383 7.75814L22.9853 8.89269L22.9853 8.8928L21.3383 7.75814ZM22.3984 6.35665L20.8612 5.07718L20.8618 5.07657L22.3984 6.35665ZM22.5496 6.17741L24.0746 7.4714L24.069 7.47796L22.5496 6.17741ZM22.6632 6.04823L21.9645 4.17427L21.9672 4.17326L22.6632 6.04823ZM22.7449 6.13318L20.7887 6.54932L20.7881 6.54686L22.7449 6.13318ZM22.9438 7.09892L20.983 7.49304L20.983 7.49298L22.9438 7.09892ZM24.198 14.8429L22.2132 15.0894L22.2132 15.0893L24.198 14.8429ZM25.0286 22.7144L23.0383 22.9117L23.0383 22.9117L25.0286 22.7144ZM25.8128 30.6259L23.8225 30.8235L23.8225 30.8231L25.8128 30.6259ZM26.0049 32.5645L24.0149 32.7635L24.0147 32.7616L26.0049 32.5645ZM26.2314 32.706L26.6818 34.6547L26.6814 34.6548L26.2314 32.706ZM26.3709 32.4756L28.3611 32.2783L28.3613 32.2795L26.3709 32.4756ZM25.5737 24.433L27.564 24.2357L27.564 24.2358L25.5737 24.433ZM24.7601 16.4175L26.7476 16.1943L26.7476 16.1944L24.7601 16.4175ZM23.6051 8.53855L25.5715 8.17391L25.5716 8.17398L23.6051 8.53855ZM23.2271 6.60299L25.1862 6.2007L25.1863 6.20093L23.2271 6.60299ZM23.1269 6.12042L21.1698 6.53257L21.1696 6.53143L23.1269 6.12042ZM22.9637 5.76418L21.6595 7.28039L21.6583 7.27941L22.9637 5.76418ZM22.3542 5.82665L23.8519 7.15221L23.8518 7.15231L22.3542 5.82665ZM20.2746 8.72157L21.9963 9.73915L21.9963 9.7393L20.2746 8.72157ZM19.427 10.3163L17.6225 9.45392L17.6226 9.45372L19.427 10.3163ZM18.9761 10.8771L19.6641 12.7551L19.6624 12.7557L18.9761 10.8771ZM18.5901 10.9276L18.6565 12.9265L18.6557 12.9265L18.5901 10.9276ZM18.0708 10.9435L18.1326 12.9425L18.1325 12.9425L18.0708 10.9435ZM16.0975 11.0042L16.0355 9.00519L16.0363 9.00517L16.0975 11.0042ZM14.3869 10.9605L13.9772 12.9181L13.9769 12.918L14.3869 10.9605ZM13.156 10.0835L11.4446 11.1184L11.4445 11.1182L13.156 10.0835ZM12.7099 9.13008L10.8567 9.8824L10.8567 9.88225L12.7099 9.13008ZM12.1433 7.73423L10.2902 8.48659L10.2901 8.48639L12.1433 7.73423ZM11.5289 6.22058L13.382 5.4681L13.3821 5.46841L11.5289 6.22058ZM11.086 5.74851L11.63 3.82392L11.6308 3.82414L11.086 5.74851ZM10.0064 6.5576L8.32097 5.48094L8.321 5.48089L10.0064 6.5576ZM8.63844 9.70749L10.5496 10.297L10.5496 10.297L8.63844 9.70749ZM7.65132 13.3007L9.58654 13.8056L9.58654 13.8056L7.65132 13.3007ZM6.75292 17.1832L8.71676 17.5618L8.71676 17.5618L6.75292 17.1832ZM6.13245 21.098L8.11582 21.3553L8.11582 21.3553L6.13245 21.098ZM5.29796 29.063L7.28856 29.2567L7.28856 29.2567L5.29796 29.063ZM5.10857 31.009L3.11797 30.8153L3.11798 30.8153L5.10857 31.009ZM3.49376 30.8284C3.74746 28.2215 3.98705 25.5657 4.27775 22.9267L8.2537 23.3646C7.96671 25.9701 7.73233 28.5712 7.47495 31.2159L3.49376 30.8284ZM4.27775 22.9267C4.56868 20.2856 4.94901 17.6046 5.56942 14.9442L9.4649 15.8526C8.89554 18.2941 8.53626 20.7995 8.2537 23.3646L4.27775 22.9267ZM5.56941 14.9442C5.87422 13.6371 6.22068 12.3476 6.55974 11.0931L10.4212 12.1368C10.0808 13.3962 9.75175 14.6225 9.4649 15.8526L5.56941 14.9442ZM6.55975 11.0931C6.8529 10.0085 7.18241 8.76795 7.67453 7.56692L11.3759 9.08352C10.9957 10.0114 10.728 11.0017 10.4212 12.1368L6.55975 11.0931ZM7.67448 7.56704C7.91955 6.96882 8.21486 6.36382 8.5798 5.77857L11.974 7.89504C11.7504 8.25365 11.5532 8.65069 11.3759 9.0834L7.67448 7.56704ZM8.57987 5.77846C8.67212 5.63053 8.76915 5.48338 8.87121 5.33784L12.1463 7.63436C12.0875 7.7181 12.0301 7.8051 11.9739 7.89515L8.57987 5.77846ZM8.87025 5.33921C8.86988 5.33974 8.87157 5.33734 8.87662 5.32983C8.88211 5.32167 8.8879 5.31297 8.89814 5.29758C8.91516 5.272 8.94739 5.22347 8.98368 5.1719C9.05083 5.07645 9.18764 4.88864 9.38896 4.70287L12.1016 7.64258C12.1318 7.6147 12.1566 7.58938 12.1763 7.56826C12.1959 7.54714 12.2115 7.52898 12.2229 7.51513C12.2343 7.50127 12.2426 7.49043 12.2476 7.48378C12.2526 7.47713 12.2553 7.47335 12.2551 7.47363C12.2548 7.47397 12.2528 7.47684 12.2481 7.48383C12.2431 7.49124 12.2374 7.49982 12.2281 7.51375C12.22 7.5259 12.2076 7.54453 12.195 7.56327C12.182 7.58265 12.1656 7.60669 12.1472 7.63298L8.87025 5.33921ZM9.38967 4.70222C10.3902 3.7799 12.0256 3.93524 12.7992 5.1352L9.43742 7.30271C10.0442 8.24377 11.3234 8.35991 12.1008 7.64323L9.38967 4.70222ZM12.7994 5.13545C12.9502 5.36947 13.0351 5.58953 13.0713 5.68569C13.0901 5.73576 13.1096 5.79118 13.1151 5.80656C13.1248 5.83357 13.1236 5.82931 13.1181 5.81568L9.4116 7.31967C9.39681 7.28322 9.38422 7.25026 9.37418 7.22332C9.36423 7.19661 9.35546 7.17227 9.34906 7.15436C9.34587 7.14547 9.34264 7.13639 9.34023 7.12964C9.3376 7.12226 9.33556 7.11654 9.33367 7.11129C9.32986 7.10068 9.32806 7.09582 9.3273 7.0938C9.32661 7.09197 9.32791 7.09549 9.33084 7.10265C9.33379 7.10985 9.33914 7.12258 9.34689 7.13936C9.35464 7.15614 9.36561 7.17876 9.38007 7.20566C9.39453 7.23256 9.4134 7.26544 9.43726 7.30246L12.7994 5.13545ZM13.1179 5.8152C13.1686 5.94004 13.2193 6.06489 13.2699 6.18958C13.3205 6.31432 13.3711 6.43889 13.4216 6.5634L9.71554 8.06836C9.66484 7.94352 9.61417 7.81866 9.56355 7.69397C9.51292 7.56924 9.46236 7.44466 9.4118 7.32016L13.1179 5.8152ZM13.4218 6.56375C13.6484 7.12206 13.875 7.68032 14.1015 8.2384L10.3953 9.74307C10.1687 9.18479 9.94201 8.62637 9.7154 8.068L13.4218 6.56375ZM14.1016 8.23847C14.3993 8.97188 14.476 9.18042 14.6166 9.34664L11.5622 11.9294C10.901 11.1475 10.5611 10.1514 10.3953 9.74299L14.1016 8.23847ZM14.6168 9.34692C14.6179 9.34814 14.6147 9.3444 14.6082 9.33942C14.6019 9.33468 14.5992 9.33382 14.604 9.33611C14.6159 9.34182 14.6687 9.36417 14.7928 9.38232C14.9198 9.40089 15.0845 9.41005 15.3096 9.40853C15.5543 9.40689 15.7596 9.39552 16.0744 9.38581L16.1978 13.3839C15.7869 13.3966 14.9732 13.4512 14.2142 13.3402C13.3776 13.2179 12.3585 12.8715 11.5619 11.9291L14.6168 9.34692ZM16.0744 9.38581C16.4034 9.37565 16.7324 9.36553 17.0613 9.35542C17.3902 9.34531 17.7189 9.3352 18.0476 9.32504L18.1711 13.3231C17.8421 13.3333 17.5131 13.3434 17.1842 13.3535C16.8553 13.3636 16.5266 13.3738 16.1978 13.3839L16.0744 9.38581ZM18.0479 9.32504C18.1558 9.32172 18.2612 9.32166 18.3322 9.32151C18.4133 9.32134 18.4629 9.32109 18.5074 9.31974C18.602 9.31687 18.5749 9.31026 18.4972 9.33134L19.5455 13.1916C19.1784 13.2912 18.8436 13.3114 18.6288 13.3179C18.5186 13.3212 18.413 13.3213 18.3405 13.3215C18.258 13.3217 18.2113 13.3219 18.1709 13.3231L18.0479 9.32504ZM18.4984 9.33103C18.1218 9.43305 17.9383 9.67991 17.8919 9.75765L21.3269 11.8072C21.0061 12.3449 20.4405 12.9491 19.5443 13.1919L18.4984 9.33103ZM17.8919 9.75771C18.0009 9.5751 17.9567 9.60842 18.1985 9.13251L21.7645 10.9445C21.7563 10.9607 21.5007 11.516 21.327 11.8072L17.8919 9.75771ZM18.1985 9.13243C18.3431 8.84796 18.4939 8.56651 18.6508 8.2886L22.1341 10.255C22.006 10.4819 21.8827 10.7119 21.7645 10.9446L18.1985 9.13243ZM18.6506 8.289C18.9727 7.71822 19.32 7.16236 19.6913 6.62348L22.9853 8.8928C22.6817 9.33342 22.3976 9.78796 22.1343 10.2547L18.6506 8.289ZM19.6912 6.62359C20.0558 6.09434 20.4453 5.57692 20.8612 5.07718L23.9356 7.63612C23.6025 8.0363 23.2859 8.45631 22.9853 8.89269L19.6912 6.62359ZM20.8618 5.07657C20.9155 5.012 20.9719 4.94496 21.0302 4.87686L24.069 7.47796C24.0257 7.52855 23.9814 7.58123 23.9351 7.63674L20.8618 5.07657ZM21.0246 4.88343C20.9625 4.95657 20.9199 5.02004 20.9349 4.99852C20.9363 4.99657 20.9364 4.99648 20.9403 4.99088C20.9431 4.98677 20.9477 4.98021 20.953 4.97274C20.9632 4.95819 20.9801 4.93451 21.0008 4.90682C21.036 4.85979 21.116 4.75544 21.2316 4.64214C21.3304 4.54521 21.5766 4.31892 21.9645 4.17427L23.362 7.92219C23.5571 7.84945 23.7055 7.75852 23.8053 7.6876C23.9064 7.61585 23.9821 7.54721 24.0322 7.49806C24.1272 7.40497 24.187 7.32534 24.2027 7.30425C24.2182 7.28355 24.2354 7.25874 24.213 7.2907C24.2106 7.29425 24.1515 7.38067 24.0746 7.47138L21.0246 4.88343ZM21.9672 4.17326C22.2089 4.08354 22.6801 3.96004 23.2443 4.11904C23.8585 4.29216 24.2323 4.69809 24.4256 5.01089C24.5932 5.28207 24.6566 5.52969 24.675 5.60225C24.6911 5.66552 24.715 5.78282 24.7016 5.71951L20.7881 6.54686C20.7692 6.4575 20.7883 6.54816 20.7981 6.58686C20.8103 6.63487 20.8662 6.85999 21.0228 7.11345C21.2051 7.40852 21.5646 7.80148 22.1592 7.96906C22.7037 8.12252 23.1499 8.00091 23.3593 7.9232L21.9672 4.17326ZM24.7011 5.71705C24.7717 6.04881 24.8391 6.3791 24.9046 6.70485L20.983 7.49298C20.9189 7.17425 20.8548 6.86031 20.7887 6.54932L24.7011 5.71705ZM24.9045 6.70479C25.43 9.31896 25.8544 11.9521 26.1828 14.5965L22.2132 15.0893C21.8968 12.541 21.4882 10.0065 20.983 7.49304L24.9045 6.70479ZM26.1827 14.5964C26.5119 17.2461 26.7602 19.9082 27.0188 22.5171L23.0383 22.9117C22.7764 20.2697 22.5345 17.676 22.2132 15.0894L26.1827 14.5964ZM27.0188 22.517C27.2803 25.1543 27.5417 27.7915 27.803 30.4287L23.8225 30.8231C23.5612 28.186 23.2998 25.5489 23.0383 22.9117L27.0188 22.517ZM27.803 30.4283C27.8672 31.0748 27.9312 31.7212 27.9952 32.3674L24.0147 32.7616C23.9507 32.1154 23.8867 31.4695 23.8225 30.8235L27.803 30.4283ZM27.995 32.3655C27.9178 31.5931 27.4195 31.1375 27.0751 30.9421C26.7475 30.7564 26.2921 30.6394 25.7815 30.7573L26.6814 34.6548C26.0812 34.7934 25.5178 34.6574 25.1019 34.4216C24.6692 34.1762 24.1025 33.6395 24.0149 32.7635L27.995 32.3655ZM25.7811 30.7574C25.2478 30.8807 24.8212 31.2325 24.5846 31.6724C24.3765 32.0595 24.3564 32.427 24.3805 32.6716L28.3613 32.2795C28.3954 32.6263 28.3605 33.0964 28.1076 33.5668C27.8262 34.0901 27.3248 34.5061 26.6818 34.6547L25.7811 30.7574ZM24.3806 32.6728C24.1141 29.9827 23.8501 27.3205 23.5835 24.6303L27.564 24.2358C27.8287 26.9072 28.0964 29.6067 28.3611 32.2783L24.3806 32.6728ZM23.5835 24.6304C23.317 21.9422 23.0702 19.292 22.7725 16.6406L26.7476 16.1944C27.049 18.8801 27.3006 21.5792 27.564 24.2357L23.5835 24.6304ZM22.7725 16.6406C22.4806 14.0402 22.1125 11.4593 21.6386 8.90311L25.5716 8.17398C26.0656 10.839 26.4468 13.5157 26.7476 16.1943L22.7725 16.6406ZM21.6386 8.90318C21.521 8.26906 21.3975 7.63634 21.268 7.00504L25.1863 6.20093C25.321 6.85746 25.4494 7.51512 25.5715 8.17391L21.6386 8.90318ZM21.268 7.00527C21.2355 6.84684 21.2028 6.68931 21.1698 6.53257L25.0839 5.70827C25.1186 5.87305 25.1527 6.03734 25.1862 6.2007L21.268 7.00527ZM21.1696 6.53143C21.1476 6.42683 21.1647 6.53227 21.2129 6.65551C21.2785 6.82316 21.411 7.06665 21.6595 7.28039L24.268 4.24798C24.97 4.85184 25.08 5.68934 25.0842 5.70942L21.1696 6.53143ZM21.6583 7.27941C21.9932 7.56789 22.4464 7.70599 22.896 7.64964C23.3177 7.5968 23.6431 7.38809 23.8519 7.15221L20.8566 4.50109C21.5969 3.66468 23.0908 3.23382 24.2691 4.24895L21.6583 7.27941ZM23.8518 7.15231C23.167 7.92594 22.5485 8.80492 21.9963 9.73915L18.5528 7.704C19.208 6.59531 19.9718 5.50059 20.8567 4.50099L23.8518 7.15231ZM21.9963 9.7393C21.7225 10.2025 21.4685 10.6829 21.2314 11.1789L17.6226 9.45372C17.9054 8.86209 18.2139 8.2772 18.5529 7.70385L21.9963 9.7393ZM21.2315 11.1787C21.2128 11.2179 21.082 11.5121 20.9017 11.7751C20.7022 12.0662 20.3182 12.5155 19.6641 12.7551L18.2882 8.99916C17.8709 9.15204 17.6611 9.42784 17.6023 9.51366C17.5711 9.55915 17.5585 9.58601 17.5662 9.57097C17.5784 9.5472 17.584 9.53435 17.6225 9.45392L21.2315 11.1787ZM19.6624 12.7557C19.1743 12.934 18.6748 12.9259 18.6565 12.9265L18.5236 8.92867C18.5715 8.92707 18.5812 8.92691 18.5997 8.92609C18.6121 8.92555 18.6049 8.9256 18.5873 8.92735C18.5556 8.93051 18.4406 8.94347 18.2899 8.99854L19.6624 12.7557ZM18.6557 12.9265C18.4814 12.9322 18.2968 12.9374 18.1326 12.9425L18.009 8.94441C18.1909 8.93879 18.3526 8.93428 18.5244 8.92864L18.6557 12.9265ZM18.1325 12.9425C17.4748 12.9628 16.8168 12.9831 16.1587 13.0033L16.0363 9.00517C16.6937 8.98503 17.3513 8.96473 18.0091 8.94441L18.1325 12.9425ZM16.1595 13.0033C15.7827 13.0149 14.8379 13.0983 13.9772 12.9181L14.7967 9.00295C15.0499 9.05595 15.2847 9.02847 16.0355 9.00519L16.1595 13.0033ZM13.9769 12.918C12.8935 12.6911 12.0136 12.0593 11.4446 11.1184L14.8674 9.04852C14.8758 9.06249 14.8782 9.06375 14.8723 9.05725C14.8661 9.05042 14.8548 9.0396 14.8388 9.02817C14.8227 9.01671 14.8077 9.00883 14.7969 9.00418C14.7864 8.9997 14.7851 9.00052 14.7969 9.00299L13.9769 12.918ZM11.4445 11.1182C11.1664 10.6583 10.9772 10.1791 10.8567 9.8824L14.563 8.37776C14.7066 8.73153 14.7821 8.90748 14.8675 9.04869L11.4445 11.1182ZM10.8567 9.88225C10.6678 9.41677 10.479 8.95164 10.2902 8.48659L13.9964 6.98186C14.1853 7.44716 14.3742 7.91271 14.563 8.37791L10.8567 9.88225ZM10.2901 8.48639C10.1877 8.23412 10.0853 7.98184 9.98293 7.72957C9.88053 7.47729 9.77814 7.22502 9.67574 6.97274L13.3821 5.46841C13.4845 5.72069 13.5869 5.97296 13.6893 6.22524C13.7917 6.47751 13.8941 6.72979 13.9965 6.98206L10.2901 8.48639ZM9.67587 6.97306C9.66596 6.94865 9.70959 7.07071 9.83771 7.222C9.99192 7.40411 10.2314 7.58518 10.5412 7.67288L11.6308 3.82414C12.7985 4.15472 13.2379 5.11332 13.382 5.4681L9.67587 6.97306ZM10.542 7.6731C10.8092 7.74864 11.1199 7.7427 11.4101 7.637C11.6661 7.5438 11.8113 7.40796 11.8549 7.36411C11.8984 7.32037 11.903 7.30454 11.8629 7.36434C11.8452 7.39057 11.8247 7.42267 11.7955 7.46925C11.7725 7.50603 11.7284 7.57714 11.6919 7.63431L8.321 5.48089C8.34998 5.43552 8.64836 4.91586 9.01856 4.54359C9.48514 4.07439 10.4094 3.47891 11.63 3.82392L10.542 7.6731ZM11.6919 7.63426C11.2165 8.37852 10.8667 9.26876 10.5496 10.297L6.72729 9.11798C7.08565 7.95621 7.56145 6.66993 8.32097 5.48094L11.6919 7.63426ZM10.5496 10.297C10.1999 11.4307 9.90449 12.5869 9.58654 13.8056L5.7161 12.7958C6.02478 11.6126 6.34548 10.3557 6.7273 9.11795L10.5496 10.297ZM9.58654 13.8056C9.25697 15.0688 8.95712 16.315 8.71676 17.5618L4.78908 16.8046C5.05198 15.4409 5.37494 14.1034 5.7161 12.7958L9.58654 13.8056ZM8.71676 17.5618C8.4762 18.8095 8.28198 20.0747 8.11582 21.3553L4.14907 20.8407C4.32297 19.5003 4.52939 18.1516 4.78908 16.8046L8.71676 17.5618ZM8.11582 21.3553C7.77776 23.9609 7.54972 26.5731 7.28856 29.2567L3.30737 28.8693C3.56327 26.2397 3.80023 23.5293 4.14907 20.8407L8.11582 21.3553ZM7.28856 29.2567C7.22543 29.9054 7.1623 30.5541 7.09917 31.2027L3.11798 30.8153C3.18111 30.1666 3.24424 29.5179 3.30737 28.8692L7.28856 29.2567ZM7.09917 31.2027C7.14707 30.7104 6.98741 30.1478 6.55784 29.7244C6.17303 29.3451 5.71067 29.2125 5.34594 29.2002C4.63008 29.1761 3.60626 29.6724 3.49376 30.8284L7.47495 31.2159C7.33869 32.6161 6.11505 33.2283 5.21128 33.1979C4.75259 33.1825 4.19925 33.0161 3.74993 32.5732C3.25585 32.0862 3.05814 31.4301 3.11797 30.8153L7.09917 31.2027Z"
            fill="black" mask="url(#path-3-inside-1_389_4250)" />
        <path
            d="M6.34332 17.1507C6.54833 17.1979 6.75412 17.2418 6.96059 17.282C7.17849 17.3245 7.39715 17.363 7.61633 17.3981C7.82505 17.4315 8.03433 17.4613 8.24404 17.4875C8.4527 17.5136 8.66181 17.5361 8.87123 17.5551C9.08065 17.574 9.29039 17.5893 9.50033 17.6011C9.52657 17.6025 9.55282 17.6039 9.57907 17.6053C9.61806 17.6073 9.66101 17.5903 9.68941 17.5632C9.71703 17.5371 9.73867 17.4933 9.73832 17.4543C9.73795 17.4137 9.72635 17.3713 9.69714 17.3421C9.66775 17.3127 9.63186 17.2947 9.58999 17.2925C9.30441 17.2777 9.01917 17.2563 8.73457 17.2282C8.45101 17.2004 8.16809 17.1658 7.88609 17.1248C7.72688 17.1016 7.56798 17.0764 7.40941 17.0491C7.42297 17.0514 7.43653 17.0538 7.45009 17.0561C7.18479 17.0103 6.92045 16.9588 6.65733 16.9016C6.58333 16.8854 6.50943 16.8689 6.43562 16.8519C6.39472 16.8424 6.35453 16.8426 6.31657 16.8635C6.284 16.8814 6.25227 16.9175 6.24262 16.9545C6.23226 16.9942 6.23263 17.0393 6.25391 17.0756C6.27349 17.109 6.30462 17.1417 6.34332 17.1507Z"
            fill="#100F0D" />
        <path
            d="M25.7541 16.7734C25.3193 16.7129 24.8771 16.7556 24.447 16.833C24.0208 16.9099 23.6019 17.0227 23.1779 17.1105C22.9733 17.1529 22.7671 17.187 22.5593 17.2083C22.5729 17.2068 22.5867 17.2055 22.6003 17.2041C22.2783 17.2366 21.9518 17.2389 21.632 17.1847C21.6456 17.187 21.6591 17.1894 21.6727 17.1917C21.472 17.1571 21.2754 17.0997 21.0902 17.0133C21.1024 17.0189 21.1144 17.0247 21.1265 17.0303C21.0059 16.9734 20.8912 16.9046 20.7847 16.8239C20.7541 16.8007 20.7026 16.7953 20.6667 16.804C20.6306 16.8128 20.5911 16.8394 20.5722 16.8727C20.5281 16.951 20.5509 17.0363 20.62 17.0886C21.0656 17.4258 21.6315 17.5437 22.1782 17.5401C22.4608 17.5382 22.7437 17.5066 23.0222 17.4584C23.3216 17.4066 23.6171 17.3335 23.9131 17.2653C24.2574 17.186 24.6037 17.1109 24.9554 17.0745C24.9417 17.076 24.928 17.0774 24.9143 17.0788C25.19 17.0508 25.4683 17.048 25.7431 17.0862C25.7798 17.0914 25.8274 17.069 25.8535 17.0442C25.8812 17.0181 25.9028 16.9742 25.9024 16.9352C25.902 16.8947 25.8904 16.8523 25.8612 16.823C25.8305 16.7923 25.7967 16.7793 25.7541 16.7734Z"
            fill="#100F0D" />
        <path
            d="M17.8474 17.044C17.1336 16.9995 16.4186 16.9746 15.7035 16.9696C14.9883 16.9646 14.273 16.9794 13.5586 17.0139C13.1561 17.0335 12.7539 17.0593 12.3521 17.0913C12.3099 17.0947 12.2739 17.1028 12.2417 17.1333C12.2141 17.1596 12.1925 17.2034 12.1928 17.2424C12.1932 17.2828 12.2048 17.3253 12.234 17.3545C12.2612 17.3817 12.3013 17.4073 12.3412 17.4042C13.0542 17.3474 13.7687 17.3101 14.4837 17.2928C15.1988 17.2755 15.9142 17.278 16.629 17.3003C17.0317 17.3129 17.4343 17.3318 17.8365 17.3569C17.9168 17.3618 17.9964 17.2888 17.9957 17.2058C17.9949 17.119 17.9335 17.0493 17.8474 17.044Z"
            fill="#100F0D" />
        <path
            d="M17.7549 16.3091C17.443 16.1656 17.0818 16.5033 17.0637 16.8512C17.0456 17.199 17.251 17.5142 17.4597 17.7902C17.6684 18.0661 17.8979 18.3523 17.9414 18.6977C17.9656 18.8906 17.9397 19.1163 18.0794 19.2489C18.1596 19.3252 18.2746 19.3472 18.3829 19.3661C18.7771 19.4346 19.1713 19.5032 19.5656 19.5718C19.933 19.6357 20.3365 19.6934 20.6572 19.4998C21.0265 19.2769 21.1539 18.8048 21.2493 18.3792C21.4024 17.6959 21.5556 17.0126 21.7088 16.3293C21.7349 16.2128 21.7587 16.0816 21.695 15.9812C21.5807 15.8015 21.3116 15.871 21.1161 15.9511C20.096 16.3693 18.966 16.5054 17.8787 16.3411"
            fill="#F7906D" />
        <path
            d="M12.6425 20.0998C12.6614 20.3218 12.6905 20.5427 12.7338 20.7613C12.7545 20.8655 12.7781 20.969 12.8046 21.0718C12.8304 21.1718 12.8577 21.2739 12.9046 21.3661C12.9511 21.4574 13.0211 21.5398 13.1086 21.5926C13.1906 21.6421 13.283 21.6681 13.3779 21.6744C13.4635 21.6801 13.5529 21.6683 13.6352 21.644C13.7193 21.6192 13.8022 21.5835 13.8758 21.5349C14.0626 21.4116 14.1979 21.2314 14.3383 21.0593C14.3299 21.0696 14.3215 21.0799 14.3132 21.0901C14.3921 20.9935 14.4739 20.8907 14.5744 20.8162C14.5637 20.824 14.5531 20.8318 14.5424 20.8396C14.5644 20.8238 14.5875 20.8101 14.6127 20.8002C14.6002 20.805 14.5878 20.8099 14.5753 20.8147C14.5906 20.8092 14.6059 20.8053 14.622 20.8033C14.6083 20.8047 14.5946 20.8061 14.5809 20.8075C14.5969 20.806 14.6124 20.8067 14.6282 20.8094C14.6146 20.807 14.6011 20.8047 14.5875 20.8023C14.6007 20.8048 14.6132 20.8087 14.6254 20.8141C14.6133 20.8084 14.6013 20.8028 14.5893 20.7971C14.6018 20.8031 14.6132 20.8105 14.6239 20.8194C14.6138 20.8109 14.6037 20.8024 14.5936 20.7939C14.6051 20.804 14.615 20.8154 14.6239 20.8279C14.6163 20.8171 14.6087 20.8062 14.601 20.7954C14.6142 20.8147 14.6243 20.8357 14.6327 20.8576C14.628 20.8449 14.6232 20.8323 14.6185 20.8197C14.6443 20.8896 14.6528 20.965 14.6601 21.0388C14.6588 21.0249 14.6574 21.0109 14.656 20.997C14.6663 21.1039 14.6702 21.2107 14.7077 21.3122C14.7481 21.4213 14.8051 21.5197 14.8843 21.6049C15.0268 21.7583 15.2242 21.8659 15.4282 21.9042C15.4871 21.9152 15.546 21.9243 15.6059 21.926C15.6646 21.9278 15.7235 21.9228 15.7817 21.9149C15.8908 21.9002 15.9974 21.8609 16.094 21.8081C16.3002 21.6955 16.4691 21.5134 16.5804 21.3052C16.6952 21.0904 16.7609 20.8495 16.7697 20.6051C16.7707 20.5775 16.7709 20.5499 16.7702 20.5223C16.7693 20.4807 16.7575 20.4412 16.7291 20.4101C16.7033 20.382 16.6603 20.3601 16.622 20.3606C16.582 20.3609 16.5404 20.3728 16.5115 20.4025C16.4838 20.4312 16.4618 20.4701 16.4627 20.5116C16.4646 20.6022 16.4579 20.6927 16.4431 20.782C16.4454 20.7682 16.4477 20.7544 16.45 20.7406C16.4289 20.865 16.3923 20.9863 16.3402 21.1009C16.3458 21.0886 16.3514 21.0763 16.357 21.064C16.312 21.1618 16.2559 21.2538 16.1882 21.337C16.1965 21.3267 16.205 21.3164 16.2133 21.3061C16.1564 21.3753 16.0919 21.4374 16.0199 21.4901C16.0306 21.4824 16.0413 21.4745 16.052 21.4668C15.9871 21.5138 15.917 21.5529 15.8426 21.5818C15.855 21.577 15.8674 21.5722 15.8798 21.5674C15.8162 21.5916 15.7498 21.6068 15.6823 21.6137C15.696 21.6124 15.7097 21.6109 15.7234 21.6096C15.646 21.6171 15.5681 21.6136 15.4915 21.6004C15.5051 21.6028 15.5187 21.6051 15.5322 21.6075C15.4525 21.5934 15.3751 21.569 15.3015 21.5348C15.3136 21.5405 15.3256 21.5462 15.3377 21.5519C15.2697 21.5198 15.2058 21.4796 15.1479 21.4312C15.1581 21.4397 15.1681 21.4482 15.1782 21.4567C15.1301 21.4159 15.0868 21.3699 15.05 21.3184C15.0576 21.3291 15.0653 21.34 15.0729 21.3508C15.0403 21.3045 15.0133 21.2546 14.993 21.2015C14.9977 21.2141 15.0025 21.2268 15.0072 21.2394C14.9863 21.1834 14.9745 21.1257 14.9687 21.0661C14.97 21.0801 14.9714 21.094 14.9728 21.1079C14.9561 20.9348 14.9549 20.7428 14.8399 20.6019C14.7658 20.5113 14.6382 20.4756 14.5272 20.503C14.411 20.5316 14.3188 20.6193 14.2385 20.7048C14.1542 20.7946 14.0785 20.8922 14.0006 20.9877C14.009 20.9775 14.0174 20.9672 14.0257 20.9569C13.9351 21.0678 13.8406 21.1794 13.7248 21.2642C13.7355 21.2563 13.7461 21.2486 13.7568 21.2408C13.7032 21.2794 13.6451 21.3107 13.5839 21.3346C13.5963 21.3298 13.6087 21.3249 13.6211 21.3201C13.5634 21.3421 13.5036 21.3573 13.4422 21.3639C13.4559 21.3624 13.4696 21.3611 13.4833 21.3597C13.4348 21.3645 13.386 21.3636 13.3379 21.3555C13.3514 21.3579 13.365 21.3602 13.3786 21.3625C13.3419 21.356 13.3065 21.3453 13.2726 21.3298C13.2847 21.3355 13.2968 21.3412 13.3089 21.3468C13.2797 21.333 13.2525 21.3159 13.2275 21.2953C13.2376 21.3038 13.2477 21.3123 13.2578 21.3208C13.2314 21.2985 13.2085 21.273 13.1884 21.2448C13.196 21.2556 13.2037 21.2665 13.2113 21.2773C13.1836 21.237 13.1625 21.193 13.1451 21.1472C13.1499 21.1599 13.1546 21.1725 13.1593 21.1851C13.1127 21.0596 13.0841 20.9256 13.0555 20.7949C13.0254 20.657 13.0004 20.5179 12.9808 20.378C12.9695 20.2976 12.96 20.2168 12.9521 20.1359C12.9535 20.1499 12.9548 20.1638 12.9562 20.1777C12.954 20.1553 12.952 20.1329 12.9501 20.1105C12.9464 20.0673 12.9391 20.0312 12.9089 19.9983C12.8832 19.9703 12.8401 19.9483 12.8018 19.9487C12.7619 19.9491 12.7202 19.961 12.6914 19.9907C12.6648 20.0182 12.6391 20.0594 12.6425 20.0998Z"
            fill="#100F0D" />
        <path
            d="M8.79593 16.0511C8.82824 16.4785 8.86055 16.9061 8.89284 17.3336C8.92156 17.7137 8.95357 18.1058 9.12773 18.4431C9.38208 18.9358 9.91298 19.2361 10.4541 19.3196C10.9952 19.4032 11.548 19.2965 12.074 19.1419C12.23 19.0961 12.386 19.0455 12.528 18.9653C13.2855 18.5375 13.38 17.488 13.3822 16.6071C13.3828 16.3848 13.3803 16.1501 13.2696 15.9585C13.1507 15.7522 12.925 15.632 12.6973 15.5723C11.8516 15.351 10.9657 15.8319 10.0985 15.7263C9.82912 15.6935 9.5591 15.6042 9.29186 15.6524C9.02462 15.7006 8.76506 15.9645 8.84863 16.2269"
            fill="#F7906D" />
    </g>
    <path
        d="M43.1789 24.2439C47.0112 24.3777 49.4945 21.9401 49.6345 17.9313L50.0316 6.56032L47.6111 6.47579L47.2149 17.8215C47.1216 20.4941 45.5777 22.0558 43.2581 21.9748C40.9133 21.8929 39.5343 20.1786 39.6259 17.5565L40.0221 6.21078L37.5512 6.12449L37.1542 17.4954C37.0133 21.5295 39.3465 24.1101 43.1789 24.2439Z"
        fill="#1A1A1A" />
    <path
        d="M58.2994 24.7719C61.5771 24.8864 63.8557 23.2494 63.9446 20.7029C64.0221 18.4842 62.288 17.5401 60.432 17.1976L57.5709 16.7191C56.9937 16.6232 55.7653 16.3783 55.8067 15.1933C55.8445 14.1092 56.902 13.4645 58.3644 13.5156C59.7006 13.5623 60.6394 14.1504 60.8824 15.1434L63.2524 15.2261C63.0499 13.0734 61.3038 11.7502 58.4295 11.6498C55.5553 11.5495 53.5863 12.9953 53.5088 15.214C53.4348 17.3319 55.0959 18.1977 56.9024 18.5132L59.7635 18.9918C60.3903 19.1147 61.643 19.3856 61.5963 20.7219C61.5488 22.0834 60.2573 22.9218 58.3916 22.8566C56.072 22.7756 54.559 21.2839 54.7059 19.2443L52.3107 19.1607C52.1467 22.4114 54.6688 24.6451 58.2994 24.7719Z"
        fill="#1A1A1A" />
    <path
        d="M72.4724 25.2669C76.0526 25.3919 78.8278 23.2674 79.0918 20.0454L76.6966 19.9618C76.5262 21.9501 74.7876 23.303 72.4933 23.2229C69.9468 23.1339 68.1957 21.23 68.2943 18.4062C68.2952 18.381 68.297 18.3305 68.2979 18.3053L78.9124 18.676C79.121 14.8715 76.6869 12.2874 72.8546 12.1536C68.997 12.0189 66.1294 14.6198 65.9964 18.4269C65.8626 22.2593 68.514 25.1286 72.4724 25.2669ZM68.6603 16.6014C69.2487 14.9307 70.7228 13.9219 72.7903 13.9941C74.7821 14.0637 76.1345 15.0954 76.5014 16.8753L68.6603 16.6014Z"
        fill="#1A1A1A" />
    <path
        d="M82.0955 25.3505L84.4655 25.4332L84.7446 17.4408L86.4339 17.4998L93.0126 25.7317L96.1642 25.8418L89.3585 17.6019C92.3589 17.7067 94.4202 15.7844 94.4945 12.9345C94.5949 10.0603 92.5952 8.04667 89.5193 7.93926L82.7118 7.70154L82.0955 25.3505ZM84.808 15.6255L85.0087 9.87696L89.068 10.0187C90.9589 10.0847 92.1295 11.2616 92.0697 12.976C92.0089 14.7157 90.7582 15.8333 88.8672 15.7672L84.808 15.6255Z"
        fill="#1A1A1A" />
    <path
        d="M103.274 26.3425C106.854 26.4675 109.63 24.343 109.894 21.121L107.498 21.0374C107.328 23.0257 105.59 24.3786 103.295 24.2985C100.749 24.2096 98.9976 22.3056 99.0962 19.4818C99.0971 19.4566 99.0989 19.4062 99.0998 19.381L109.714 19.7516C109.923 15.9471 107.489 13.363 103.656 13.2292C99.7989 13.0945 96.9313 15.6954 96.7984 19.5025C96.6645 23.3349 99.3159 26.2043 103.274 26.3425ZM99.4622 17.6771C100.051 16.0063 101.525 14.9975 103.592 15.0697C105.584 15.1393 106.936 16.171 107.303 17.9509L99.4622 17.6771Z"
        fill="#1A1A1A" />
    <path
        d="M117.81 26.8501C121.088 26.9646 123.367 25.3276 123.456 22.7811C123.533 20.5624 121.799 19.6183 119.943 19.2758L117.082 18.7972C116.505 18.7013 115.276 18.4565 115.318 17.2715C115.355 16.1873 116.413 15.5427 117.875 15.5938C119.212 15.6404 120.15 16.2286 120.393 17.2215L122.763 17.3043C122.561 15.1515 120.815 13.8284 117.94 13.728C115.066 13.6276 113.097 15.0735 113.02 17.2922C112.946 19.4101 114.607 20.2759 116.413 20.5914L119.274 21.07C119.901 21.1928 121.154 21.4638 121.107 22.8C121.06 24.1615 119.768 25 117.903 24.9348C115.583 24.8538 114.07 23.3621 114.217 21.3225L111.822 21.2389C111.658 24.4895 114.18 26.7233 117.81 26.8501Z"
        fill="#1A1A1A" />
    <path
        d="M131.983 27.345C135.564 27.4701 138.339 25.3455 138.603 22.1236L136.208 22.0399C136.037 24.0282 134.299 25.3812 132.004 25.301C129.458 25.2121 127.707 23.3082 127.805 20.4844C127.806 20.4591 127.808 20.4087 127.809 20.3835L138.423 20.7542C138.632 16.9497 136.198 14.3656 132.366 14.2317C128.508 14.097 125.64 16.698 125.507 20.5051C125.374 24.3374 128.025 27.2068 131.983 27.345ZM128.171 18.6796C128.76 17.0088 130.234 16.0001 132.301 16.0723C134.293 16.1418 135.645 17.1736 136.012 18.9534L128.171 18.6796Z"
        fill="#1A1A1A" />
    <path
        d="M146.722 27.8597C148.916 27.9363 150.795 26.8912 151.713 25.1815L151.738 25.1824L151.648 27.7793L153.967 27.8603L154.407 15.2539L152.088 15.1729L151.997 17.7698L151.972 17.7689C151.175 15.9993 149.348 14.8248 147.18 14.7491C143.575 14.6232 140.778 17.3528 140.648 21.0843C140.517 24.841 143.142 27.7347 146.722 27.8597ZM143.043 21.1679C143.133 18.5962 145.091 16.7461 147.663 16.8359C150.26 16.9266 152.084 18.9088 151.994 21.4805C151.904 24.0522 149.946 25.9023 147.374 25.8125C144.803 25.7227 142.953 23.7649 143.043 21.1679Z"
        fill="#1A1A1A" />
    <path
        d="M157.306 27.9769L159.626 28.0579L159.812 22.738C159.923 19.5612 161.381 17.5674 164.204 17.666C164.305 17.6695 164.482 17.6757 164.582 17.7044L164.663 15.3848C164.563 15.3561 164.462 15.3526 164.361 15.3491C162.042 15.2681 160.583 16.555 159.872 18.8526L159.991 15.4489L157.747 15.3705L157.306 27.9769Z"
        fill="#1A1A1A" />
    <path
        d="M172.095 28.7457C176.103 28.8857 179.021 26.3118 178.932 22.3455L176.486 22.2601C176.62 24.9405 174.813 26.796 172.191 26.7044C169.519 26.6111 167.821 24.6333 167.911 22.0363C168.003 19.4142 169.883 17.6119 172.43 17.7008C174.119 17.7598 175.452 18.6393 176.037 19.9472L178.558 20.0353C177.892 17.4371 175.578 15.7408 172.502 15.6333C168.544 15.4951 165.65 18.1204 165.516 21.9527C165.383 25.7598 168.061 28.6049 172.095 28.7457Z"
        fill="#1A1A1A" />
    <path
        d="M181.591 28.8249L183.91 28.9059L184.15 22.048C184.361 19.6068 185.849 18.1947 188.043 18.2713C190.11 18.3435 191.301 19.6724 191.223 21.8912L190.97 29.1524L193.315 29.2343L193.582 21.5696C193.697 18.292 191.898 16.3107 188.897 16.2059C186.704 16.1293 185.055 17.0815 184.262 18.8208L184.544 10.7527L182.224 10.6717L181.591 28.8249Z"
        fill="#1A1A1A" />
</svg>
    