<svg width="31" height="32" viewBox="0 0 31 32" fill="none" xmlns="http://www.w3.org/2000/svg">
    <path
        d="M4.01072 11.1857C4.01072 9.30539 5.54035 7.77577 7.42033 7.77577C9.29267 7.77577 10.8162 9.2929 10.829 11.1616L13.2121 12.3097C13.815 11.773 14.6058 11.4439 15.4745 11.4439C16.1926 11.4439 16.8586 11.6681 17.4084 12.0489L22.5736 7.84251C21.0083 3.2851 16.6826 0 11.6014 0C5.20427 0 0 5.20451 0 11.6014C0 12.6522 0.143017 13.6705 0.40649 14.6393L4.13172 12.0701C4.05579 11.7877 4.01096 11.4922 4.01096 11.1858L4.01072 11.1857Z"
        fill="#F2FE53" />
    <path
        d="M15.4746 13.6298C14.7997 13.6298 14.2505 14.179 14.2505 14.8538C14.2505 15.5287 14.7997 16.0779 15.4746 16.0779C16.1491 16.0779 16.6983 15.5287 16.6983 14.8538C16.698 14.1787 16.1491 13.6298 15.4746 13.6298Z"
        fill="#F2FE53" />
    <path
        d="M5.34718 13.886L1.20508 16.743C2.31205 18.9716 4.1146 20.7943 6.32691 21.9283V14.4121C5.97013 14.2904 5.64048 14.1117 5.3471 13.886L5.34718 13.886Z"
        fill="#F2FE53" />
    <path
        d="M23.1167 10.2191L18.7167 13.8024C18.8246 14.1339 18.8841 14.4861 18.8841 14.8533C18.8841 16.3512 17.9122 17.6231 16.5674 18.0799V22.0824C20.4856 20.2182 23.2017 16.2216 23.2017 11.6004C23.2021 11.133 23.1709 10.6722 23.1167 10.2188L23.1167 10.2191Z"
        fill="#F2FE53" />
    <path
        d="M8.64493 11.1859C8.64493 11.8617 8.09694 12.41 7.42085 12.41C6.74476 12.41 6.19678 11.8617 6.19678 11.1859C6.19678 10.5099 6.74476 9.96155 7.42085 9.96155C8.09694 9.96155 8.64493 10.5098 8.64493 11.1859Z"
        fill="#F2FE53" />
    <path
        d="M14.3818 22.8628V18.08C13.0367 17.6232 12.0648 16.351 12.0648 14.8534C12.0648 14.6345 12.0876 14.4207 12.1273 14.213L10.1278 13.25C9.72035 13.783 9.16107 14.1919 8.51367 14.4122V22.7816C9.49746 23.0536 10.5321 23.2021 11.6016 23.2021C12.5594 23.2015 13.4901 23.0826 14.3817 22.8627L14.3818 22.8628Z"
        fill="#F2FE53" />
    <path
        d="M29.0736 27.9799L22.5127 22.0832C22.0102 21.6316 21.2616 21.589 20.7111 21.9809C19.9734 22.506 19.896 23.5731 20.5503 24.1992L26.9236 30.2981C27.5201 30.8689 28.4555 30.8846 29.0709 30.3341C29.7723 29.7066 29.7735 28.609 29.0736 27.9799Z"
        fill="#F2FE53" />
</svg>
    